<svg xmlns="http://www.w3.org/2000/svg" id="Capa_1" data-name="Capa 1" viewBox="0 0 500 500"><defs><style>.cls-1{fill:#533a73;}.cls-2{fill:#908e91;}.cls-3{fill:#e7576f;}.cls-4{fill:#e5516c;}.cls-5{fill:#f1f0f5;}.cls-6{fill:#ebe9ee;}.cls-7{fill:#5a3e74;}.cls-8{fill:#7a8862;}.cls-9{fill:#829754;}.cls-10{fill:#55446b;}.cls-11{fill:#fbe0e3;}.cls-12{fill:#e96276;}.cls-13{fill:#e34a68;}.cls-14{fill:#e96e7f;}.cls-15{fill:#543d72;}.cls-16{fill:#fdfdfd;}.cls-17{fill:#fff;}</style></defs><title>Logo Knappe</title><g id="Logo-Vec"><path class="cls-1" d="M.1,264v-3a54.29,54.29,0,0,0,0-22v-3c2.32-2.78,1.59-6.23,1.89-9.38A247.83,247.83,0,0,1,90.1,58.77C126.76,28.08,169,10.12,216.13,3,222.42,2,229,2.78,235,.1h4a53.64,53.64,0,0,0,22,0h3C270.38,2.73,277.26,2,283.89,3c61.64,9.23,113.54,36.62,154.52,83.63,32.64,37.46,52.19,81.1,58.63,130.54.69,5.27,0,10.89,2.86,15.81v35c-2.26,2-1.53,4.88-1.81,7.36A249.76,249.76,0,0,1,422,430.24a244.1,244.1,0,0,1-70.57,47.28C313.09,494.48,273,501,231.12,498A243.11,243.11,0,0,1,121.77,463.5c-43.23-26-75.61-62.18-97.29-107.71A244.08,244.08,0,0,1,2,273.36C1.69,270.23,2.49,266.75.1,264Zm435.92.08a9.68,9.68,0,0,0,3.18-4.87l1.05-2c2.21-4.27,5.28-8.2,5.31-13.34.67-7.37,1.87-14.89-5.7-19.9-1.95-2-4.64-2.42-7.15-3.26-4.38-1.45-5.63-4.08-4.16-8.5s5.21-6.29,8.69-8.5c4.18-2.65,7.61-5.94,8.86-10.86,2.18-8.55-3.08-17.3-12.79-21.65a53.64,53.64,0,0,0-35.52-3.18c-4.64,1.14-6.21-.39-7.17-4.63s-1.73-8.84-4.6-12.5c-.09-1.29-.17-2.58-.26-3.87,2-5,1.95-10.31,1.89-15.58,0-3.23-2.31-4.32-5-4.16a41.76,41.76,0,0,0-13,3c-2,.81-3.76,2.71-2.39,4.63,3,4.16,3.23,9.83,7.51,13.19l2.34,4c.23.4.46.81.68,1.22a1.78,1.78,0,0,0,.11.76,26.53,26.53,0,0,0,2,10v.07c.65,2.91,1.29,5.82,1.94,8.73l-2.55-.22c-1.81-5.67-5.53-10.19-9.08-14.8-.82-5-.14-10.48-4.65-14.27-.16-.53-.33-1.06-.49-1.59a35.62,35.62,0,0,0-12-12c-3.78-1.39-5.63-5.31-8.89-7.31a2.09,2.09,0,0,0-.62,2.59c3.72,7.75,5,16.07,6.2,24.48.56,4,2.41,8,6.36,9.53,3.67,1.38,5.7,3.81,7.33,6.92,2.23,4.25,4.31,8.59,6.46,12.9-4.2,1.94-7,6.34-12,6.78l-2.75-2.19c-1.53-2.81-3.49-5.16-6.75-6l-1-1c-3-4-4.43-9.14-9.1-11.9-3.79-2.24-8-3.94-10.29-8.16a1.52,1.52,0,0,0-2.05-.87c-.89.47-.74,1.37-.59,2.18.54,2.73,1.11,5.46,1.67,8.19.37,2.51.55,5.17,4,5.51l-.07,0a5.08,5.08,0,0,0,3.68,6.14c4.81,1.54,7.26,5.35,10.19,8.8a86.81,86.81,0,0,0-7.78,6.18c-1.56,1.54-5.12,3.33-2.71,5.88s3.59-1.51,5.31-2.53c2.19-1.29,4-5,6.48-3.54s.19,4.78-.3,7.26c-5.9,4.28-9.72,10.36-13.73,16.2-9.08,13.22-16.11,27.31-14.87,43.93.71,9.44,3.67,18.17,11.84,24.15.79,2.11,3.7,2.78,3.7,5.42-1.33,0-2.66.08-4,.08q-129.1,0-258.22.08c-1.8,0-5.08-1.48-5.07,2s3.25,1.68,5.1,2.08a12.16,12.16,0,0,0,2.49,0q131.37,0,262.72,0c2.65,0,5.3.33,7.95.5,2.25,2.53,5.6,2.27,8.43,3.35-.67,2.16-2.4,2.37-4.29,2.42s-3.67-.36-4.84,1.54l-7,.44c-5.58-1.13-11.14-2.28-16.9-1.29-3,.52-6,1.63-9.22.61-1.86-.59-3.52.36-4.87,1.72l-2-.44c-.35-1-.85-2-1.88-2.14-9.22-1.24-18.46-.86-27.69,0-1.06.1-1.28,1.38-1.43,2.38l-9,.77c-1.23-4.1-4.76-2.81-7.1-2.38-7.84,1.44-15.57.8-23.3-.31-4.3-.62-8.64-1.46-12.88-.72-7,1.21-13.93,1-20.88.75-8.44-.3-17,.11-25.25.63-9.44.59-19.19,1.48-28.49,3.86-5.45,1.39-11.56,1.26-16.08,5.51l-5,.1c-2.93,0-3.75,2-4.06,4.41-5.69,1.44-11.5.94-17.21.64-5.36-.28-8,4-11.92,6-1,.53-.2,1.79.22,2.67l1.51,1.17a3.22,3.22,0,0,1,3.45,1l1.53,1,5.54.27,2.46.64c2.76-.27,5,1.29,7.44,2.11a7.68,7.68,0,0,0,8,0l.24-.13.26,0c2.39.47,5.44-.75,6.68,2.63-1.4,1.39-3.33,1.09-5,1.6-2.17.08-4.53-.76-6.29,1.32l.09.62-2.1-.26c-.91-.58-1.49-.22-1.9.66l-2.68.7c-1.35-.11-2.6,0-3.3,1.42l-7.13,2.19c-1.37-.81-2.11.06-2.82,1-2.42.6-4.82.17-7.22-.13a3.27,3.27,0,0,0-3.7.06c-3.38.48-6.74,1.16-10.18.57-1.53-1.69-2.86-1.48-4,.42,1.37,3.56,4.75,1.61,7,2.58l0,2a5,5,0,0,1-3.42.79l-1.47.83-1.5.16-1.51,1.13a3.85,3.85,0,0,1-4,1.36c0-1.38-.1-2.74-1.4-3.63l-6.08.25a2.49,2.49,0,0,0-2.53,1.44c-.6.57-1.21,1.13-1.81,1.71-1.48,1.45-2.8,3.16-2,5.28s3.13,1.38,4.84,1.41c2.84,0,5.4,1,8.11,1.68A74.65,74.65,0,0,0,84.4,363c3.77,0,6.38.76,7.37,4.2.94,3.28-2.44,3.33-4.29,4.13-6.41,2.77-12.93,5.3-19.38,8-1.22.5-2.64,1-2.58,2.68s1.57,2,2.84,2.31c2.09.53,4.31.67,6.3,1.45,12.74,5,25.78,2.42,38.72,1.52,2.66-.19,4.81-3,7.91-2.41,5.69,1,10.84-.66,15.77-3.3,11.64-.86,23.25.12,34.88.35,34.28.67,68.58-1.4,102.84.32,17.45.88,34.83,2.61,52.33.7,5.88-.64,11.77-2.57,17.79-.85,3.38,3.22,7.69,2.66,11.77,2.7,10.78.09,21.57,0,32.36,0,1.08,7,8.43,6.13,12.23,9.74.67.64,1.75-.49,2.26-1.43.73-1.36,1.49-2.71,2.49-4.52-2,.21-3.49.45-4.95.5-1.77.07-4.13.6-4.31-2s2.23-2.44,4-2.37c4.49.18,9,.5,13.46.78,2,.13,4,.31,6.48-1.34-5.72-1.92-10.9-1.1-15.85-2.75,4.43-2.05,9.31-2.45,13.2-5.44,2.62-2,5.69-3.44,8.35-5.41,1.86-1.37,5.91-.47,5.72-2.74-.25-3-4.26-2.26-6.62-3.22l-.46-.18c.61-1.95,1.36-3.88-1.66-4.58-1.09-.25-1.82-.92-.48-2,3.58-2.76-.34-2.72-1.4-3.74a5.44,5.44,0,0,1-2.58-3.64,2.19,2.19,0,0,1-.49-.47l-5.46-.33c-.8-5.44-3.24-11.26,3.45-15L418,335c1,1.46,2.17,2.26,3.91,1.13L428,336c2,1,3.48-.05,5-1.14a34.79,34.79,0,0,1,14.93-3.1c4.64.1,9.27.2,13.9.23,4,0,6-2.9,7-6s-1.76-4.75-4.17-5.92c-2.22-1.07-4.63-1.77-6.95-2.63.78-3-.78-5.38-2.12-7.84-2.82-5.17-5.93-10.19-7.9-15.79l3.17.06c2.44,2.49,4.83,5,7.33,7.47,1.36,1.33,3.22,2.5,4.82.9,2-2,.2-3.58-1.32-5a8.7,8.7,0,0,0-1.27-.79c-7-9.88-15.66-18.28-24.21-26.77l-1.27-1.47c-.86-1.11.06-2.21,0-3.31ZM112.3,197a56.16,56.16,0,0,1,9,16c2.94,8.14,5.58,16.42,9.11,24.29,4.11,9.16,9.94,17,20.68,19.31,7.16,1.55,15.54-1.12,18.9-6.2,1.59-2.39,2.43-5.29-.26-7.1-2.84-1.92-4.72-.1-6.15,2.77-4.25,8.57-10.25,9.2-17.07,2.23-6.3-6.46-8.73-14.77-11.51-22.94-3.32-9.73-5.52-19.93-11.55-28.53-1.23-1.75-.82-2.61.7-3.56,10.05-6.28,18.75-14.3,27.81-21.84a45.93,45.93,0,0,1,13.46-7.57,198.92,198.92,0,0,0-21.54-.76c-1.4,0-3.44-.74-3.72,1.35-.38,2.75,2.11,1.78,3.52,2.12,1.23.29,2.94-.14,3.31,1.52.33,1.46-.93,2.39-1.94,3.26-4.16,3.57-8.15,7.36-12.53,10.64-5.72,4.29-11.16,9.17-18.82,11.5,1.94-9.75,4.14-18.76,7.6-27.4,1.13-2.82.61-3.95-2.6-3.84a104.47,104.47,0,0,0-20.76,2.46,24.45,24.45,0,0,0-11.75,6.26c-4.68,4.58-8,9.8-6.76,16.81a5.3,5.3,0,0,0,4.15,4.48,4.08,4.08,0,0,0,4.38-1.72c1.54-1.93.59-3.75-.33-5.57-2.81-5.54-1.73-9.62,3.79-12.91a36.35,36.35,0,0,1,13.5-5c5.39-.77,5.69-.6,4.33,4.56q-6.24,23.63-12.72,47.2c-2,7.36-3.36,15.33-13,16.88A1.72,1.72,0,0,0,82,237.86c.19,1.44,1.33,1.32,2.28,1.12a80.4,80.4,0,0,1,25.34-.88c1.56.16,3.37-.15,3.21-2.14s-2.13-.77-3.22-1.22c-2.25-.92-6.76.55-5.7-4.13C106.37,219.68,109.3,208.85,112.3,197Zm187.39-.28c-.44-2.69.75-4.81,1.11-7.07.7-4.37-.73-6.18-5.05-5.61-7.92,1-13.49,6-18.37,11.85a1.73,1.73,0,0,0,.12,2.61c.9.92,1.71.74,2.58-.06,1.6-1.45,3.2-2.91,4.87-4.27,1.38-1.13,2.87-3,4.76-1.81,1.72,1.06.62,3.11.27,4.63-4.72,20.23-9.43,40.48-14.37,60.66-1,3.93-3.14,7.45-7.86,8.06-1.53.2-2.78.88-2.47,2.45.37,1.93,2.16,1.06,3.32,1a197.27,197.27,0,0,1,23.45,0c1.61.1,4.24,1.32,4.6-1.34.45-3.39-2.94-1.49-4.39-2.4a7.47,7.47,0,0,0-2.44-.42c-4.31-.79-6.57-2.82-5.17-7.64,1.68-5.73,3.14-11.54,4.55-17.35.57-2.37,1.6-2.76,3.84-1.94a17.08,17.08,0,0,0,17-2.61c12.75-9.68,19.16-22.63,19.23-38.64,0-4.46.59-9.56-4.3-11.91s-9.4-.09-13.62,2.51c-.84.52-1.45,1.44-2.31,1.88C305.46,191.08,303.75,195.25,299.69,196.73Zm-113.61,1.41c-.62-3.22.68-5.68,1.2-8.24,1.06-5.26-.25-6.8-5.51-5.5-6.72,1.66-11.61,6.27-16.4,10.92-.79.76-1.16,1.69-.23,2.59s1.77.18,2.55-.46c2.2-1.77,4.34-3.63,6.65-5.22,2-1.37,3.16-.63,2.95,1.8a26.37,26.37,0,0,1-.77,3.92c-2.91,12-5.86,23.89-8.77,35.84-.29,1.17-1.32,2.48.56,3.4a6.72,6.72,0,0,0,9.61-4.83c1.25-7.05,3-14,4.89-20.86,2.38-8.71,8.7-13.85,16.09-18,1.25-.71,2.82-1.48,4.24-.45s.84,2.73.61,4.16c-1,6.28-3.45,12.14-5.24,18.2a74.13,74.13,0,0,0-3.22,16.1c-.37,6,2.88,9.07,7.53,7.21,6-2.38,10.76-6.54,15.13-11.17a1.84,1.84,0,0,0,.09-2.67c-.94-1.19-1.76-.37-2.52.25-2.18,1.79-4.32,3.63-6.5,5.42-.9.73-1.87,1.57-3.12.92s-1-2-1-3.1c.18-4.39,1.83-8.43,3-12.58,2.22-7.83,4.82-15.58,6.48-23.52,1.42-6.79-2.54-9.84-9.1-7.42a33.69,33.69,0,0,0-7.75,4.45C193.7,192,190,195.05,186.08,198.14Zm62.61,30.4c1.42,1.62.78,2.74.54,3.82-1.36,6.2.63,8.18,6.66,6.22,5.63-1.84,10.27-5.38,14.48-9.47,1.17-1.13,3.8-2.08,1.92-4.24s-2.76.68-4,1.4c-2.52,1.49-5.13,5-7.69,3.5-2.79-1.59-.83-5.53-.24-8.27a333.11,333.11,0,0,1,9.42-35.67c.32-1,1.53-2.21.14-3.12a2.63,2.63,0,0,0-3.23.58c-1.68,2-3.74,1.73-5.91,1.77a36.17,36.17,0,0,0-7.43.66c-15.65,3.54-31.52,24.5-31.49,41.41,0,11.24,6.56,15,16.32,9.41A51,51,0,0,0,248.69,228.54Z"></path><path class="cls-2" d="M.1,239a54.29,54.29,0,0,1,0,22Z"></path><path class="cls-2" d="M261,.1a53.64,53.64,0,0,1-22,0Z"></path><path class="cls-3" d="M344.9,382.1c-6-1.72-11.91.21-17.79.85-17.5,1.91-34.88.18-52.33-.7-34.26-1.72-68.56.35-102.84-.32-11.63-.23-23.24-1.21-34.88-.35a6,6,0,0,0-3.17-5.7c-11.22-7.24-16.91-17.55-16.84-31,0-2.64,0-5.28,0-7.92l-.09-.62c2.25.29,4.5.58,6.29-1.32,1.68-.51,3.61-.21,5-1.6,1.64-.81,1.38-2,.72-3.33.32-4,3-5.82,6.24-7.43,3.62-1.8,7.15-3.88,8.84-7.91l.84-.8a25.57,25.57,0,0,0,15.5-.64c3-1.1,5.94-1.7,9.15-.78,2.89.83,4.35-.62,4.48-3.54,8.7-.34,17.38-1.52,26.11-.82a1.2,1.2,0,0,0,1.78-.05c7.69-.69,15.39-.37,23.09-.22-2.6,2.06-6.14.12-9.51,2.13a26,26,0,0,0,10.65,1.85c9.77-.06,19.93-1.51,29.22.65,13.27,3.08,26.05.11,39-.19,12.26-.29,24.6-.92,36.82-1A208.59,208.59,0,0,1,374,316c12.09,2.51,22.3,7.5,28,19.17.16,1,.08,2.06,1.11,2.6,1.83,1,3,1.89,1,3.94-.95,1,.08,1.91,1.07,2.16,2.42.62,2.24,2.44,2.18,4.26-.74,1.84-1.81,3.62-2.15,5.53-1.65,9.22-7.9,14.7-15.49,18.77-10.86,5.82-22.78,6.69-34.85,6.51C351.28,378.92,347.49,378.69,344.9,382.1Zm50-33.05.08-4.7c1.52-4.32-2.26-2.93-4-3.73-.8-5.65-5.34-8.25-9.48-10.77-9.81-6-21-6.78-32.1-8.19-20.63-2.62-41.13-1.27-61.61,1-10.63,1.17-21.31,2.25-31.85,1.05a542.2,542.2,0,0,0-74.15-3.63A103.64,103.64,0,0,0,150,325.81c-4.65,1.62-8.11,4.45-10,9.07a3.25,3.25,0,0,0,0,.7L138.09,337c-.09.1-.24.21-.23.3a3.38,3.38,0,0,0,.16.7c.08,1.34.15,2.69.23,4-3.73.31-4,2.89-3.72,5.76,1.16,10.55,9.38,18.56,21,21.25,17.94,4.17,35.83,1.17,53.55-.81,16-1.79,32-4.26,48.07-4,15.86.29,31.73.58,47.57,4,17,3.71,34.61,3.26,52.13,2.05,13.5-.94,26.23-2.27,35.14-14C395.29,354.83,396,352.32,394.9,349.05Z"></path><path class="cls-4" d="M117.05,337c0,2.64,0,5.28,0,7.92-.07,13.42,5.62,23.73,16.84,31a6,6,0,0,1,3.17,5.7c-4.93,2.64-10.08,4.33-15.77,3.3-3.1-.56-5.25,2.22-7.91,2.41-12.94.9-26,3.49-38.72-1.52-2-.78-4.21-.92-6.3-1.45-1.27-.32-2.78-.61-2.84-2.31s1.36-2.18,2.58-2.68c6.45-2.66,13-5.19,19.38-8,1.85-.8,5.23-.85,4.29-4.13-1-3.44-3.6-4.19-7.37-4.2a74.65,74.65,0,0,1-18.15-2.39C63.54,360,61,359,58.14,359c-1.71,0-4,.84-4.84-1.41s.5-3.83,2-5.28c.6-.58,1.21-1.14,1.81-1.71a3,3,0,0,0,2.53-1.44l6.08-.25c0,1.39-.68,3,1.4,3.63a3.85,3.85,0,0,0,4-1.36L72.62,350l1.5-.16,1.47-.83a5,5,0,0,0,3.42-.78c4.41-.69,9.1.54,14.28-2.05a74.83,74.83,0,0,0-14.24,0c-2.3-1-5.68,1-7-2.58l4-.42c3.44.59,6.8-.09,10.18-.57l3.7-.06c2.4.3,4.8.73,7.22.13a2.67,2.67,0,0,0,2.82-1l7.13-2.19a3.77,3.77,0,0,0,3.3-1.42l2.68-.7,1.9-.66Z"></path><path class="cls-5" d="M112.3,197c-3,11.84-5.93,22.67-8.4,33.6-1.06,4.68,3.45,3.21,5.7,4.13,1.09.45,3.07-.69,3.22,1.22s-1.65,2.3-3.21,2.14a80.4,80.4,0,0,0-25.34.88c-1,.2-2.09.32-2.28-1.12a1.72,1.72,0,0,1,1.52-2.15c9.64-1.55,11-9.52,13-16.88q6.45-23.58,12.72-47.2c1.36-5.16,1.06-5.33-4.33-4.56a36.35,36.35,0,0,0-13.5,5c-5.52,3.29-6.6,7.37-3.79,12.91.92,1.82,1.87,3.64.33,5.57a4.08,4.08,0,0,1-4.38,1.72,5.3,5.3,0,0,1-4.15-4.48c-1.23-7,2.08-12.23,6.76-16.81a24.45,24.45,0,0,1,11.75-6.26,104.47,104.47,0,0,1,20.76-2.46c3.21-.11,3.73,1,2.6,3.84-3.46,8.64-5.66,17.65-7.6,27.4,7.66-2.33,13.1-7.21,18.82-11.5,4.38-3.28,8.37-7.07,12.53-10.64,1-.87,2.27-1.8,1.94-3.26-.37-1.66-2.08-1.23-3.31-1.52-1.41-.34-3.9.63-3.52-2.12.28-2.09,2.32-1.35,3.72-1.35a198.92,198.92,0,0,1,21.54.76,45.93,45.93,0,0,0-13.46,7.57c-9.06,7.54-17.76,15.56-27.81,21.84-1.52.95-1.93,1.81-.7,3.56,6,8.6,8.23,18.8,11.55,28.53,2.78,8.17,5.21,16.48,11.51,22.94,6.82,7,12.82,6.34,17.07-2.23,1.43-2.87,3.31-4.69,6.15-2.77,2.69,1.81,1.85,4.71.26,7.1-3.36,5.08-11.74,7.75-18.9,6.2-10.74-2.33-16.57-10.15-20.68-19.31-3.53-7.87-6.17-16.15-9.11-24.29A56.16,56.16,0,0,0,112.3,197Z"></path><path class="cls-4" d="M402.05,335.21c-5.73-11.67-15.94-16.66-28-19.17a208.59,208.59,0,0,0-42.86-4.63c-12.22,0-24.56.67-36.82,1-12.92.3-25.7,3.27-39,.19-9.29-2.16-19.45-.71-29.22-.65a26,26,0,0,1-10.65-1.85c3.37-2,6.91-.07,9.51-2.13a91.22,91.22,0,0,1,16.15-1.67A2,2,0,0,0,244,306c2.36-.52,4.71-1.19,7.18-.73a1.78,1.78,0,0,0,2.76-.38l9.1-1.35,9-.76a46.86,46.86,0,0,0,5.43,0c8.52-.9,17-1.95,25.57-.23l2,.44c10.42,2.27,20.67-.22,31-1l7-.44,46,3.72c.1,1.8-1.39,3.79,1.17,5.26a141.19,141.19,0,0,1,13.41,8.37c5,3.69,9.66,7.91,11.36,14.33C410.42,332.73,406.2,333.73,402.05,335.21Z"></path><path class="cls-5" d="M299.69,196.73c4.06-1.48,5.77-5.65,9.34-7.44.86-.44,1.47-1.36,2.31-1.88,4.22-2.6,8.8-4.84,13.62-2.51s4.33,7.45,4.3,11.91c-.07,16-6.48,29-19.23,38.64a17.08,17.08,0,0,1-17,2.61c-2.24-.82-3.27-.43-3.84,1.94-1.41,5.81-2.87,11.62-4.55,17.35-1.4,4.82.86,6.85,5.17,7.64a7.47,7.47,0,0,1,2.44.42c1.45.91,4.84-1,4.39,2.4-.36,2.66-3,1.44-4.6,1.34a197.27,197.27,0,0,0-23.45,0c-1.16.07-3,.94-3.32-1-.31-1.57.94-2.25,2.47-2.45,4.72-.61,6.89-4.13,7.86-8.06,4.94-20.18,9.65-40.43,14.37-60.66.35-1.52,1.45-3.57-.27-4.63-1.89-1.16-3.38.68-4.76,1.81-1.67,1.36-3.27,2.82-4.87,4.27-.87.8-1.68,1-2.58.06a1.73,1.73,0,0,1-.12-2.61c4.88-5.89,10.45-10.81,18.37-11.85,4.32-.57,5.75,1.24,5.05,5.61C300.44,191.92,299.25,194,299.69,196.73Zm20.72,5.38c.07-7.87-4-11.45-8.88-8.7-7.21,4.09-13.18,9.54-15.4,18-1.14,4.33-2.26,8.67-3.32,13-1.38,5.65.58,8.59,6.37,9.66a10,10,0,0,0,10.26-3.57C316.63,221.89,319.43,211.62,320.41,202.11Z"></path><path class="cls-6" d="M343.68,294.22c-2.65-.17-5.3-.49-7.95-.5q-131.36,0-262.72,0a12.16,12.16,0,0,1-2.49,0c-1.85-.4-5.09,1.35-5.1-2.08s3.27-2,5.07-2q129.11-.12,258.22-.08c1.33,0,2.66-.05,4-.08a6.31,6.31,0,0,0,4.46-.38c14.25.86,28.51.59,42.77.15a6.28,6.28,0,0,0,4,0,51.19,51.19,0,0,0,13-.05l4.94.09a5.53,5.53,0,0,0,3.76-.17,25.6,25.6,0,0,0,11.42,0,5.09,5.09,0,0,0,3.78.13l2,0-.09-.16c4,.87,8.05.54,12.09.18l2.3-.17a5.45,5.45,0,0,0,3.93.25c2.33.21,4.66.65,7-.18l2.83.38a.64.64,0,0,0,.74.48c.08.69.16,1.38.25,2.07l-1.12,1.88-3.16-.06-2.11.37a6.9,6.9,0,0,0-4.59-.31l-2.08,0-14-.12-2.1.19-3-.14-2.89.12a119.25,119.25,0,0,0-21.79.14c-8.7-.24-17.41-.66-26.11-.65C360.55,293.51,352.11,294,343.68,294.22Z"></path><path class="cls-4" d="M414.88,333.21c-1.7-6.42-6.34-10.64-11.36-14.33a141.19,141.19,0,0,0-13.41-8.37c-2.56-1.47-1.07-3.46-1.17-5.26,11-.39,21.89.16,32.28,4.3l2.19.14,3.65.25.46.07L428,310c7.21,2,14.68,2.5,22,3.71,1.22.94,2.23,2.24,3.95,2.31l0,0c.81,1.57,2.16,1.84,3.74,1.53,2.32.86,4.73,1.56,6.95,2.63,2.41,1.17,5.17,2.84,4.17,5.92s-3,6-7,6c-4.63,0-9.26-.13-13.9-.23A34.65,34.65,0,0,0,433,334.91a8.42,8.42,0,0,0-5,1.13l-6.11.13A6.87,6.87,0,0,0,418,335c-.52-.12-1-.25-1.55-.36Z"></path><path class="cls-5" d="M186.08,198.14c4-3.09,7.62-6.12,11.47-8.87a33.69,33.69,0,0,1,7.75-4.45c6.56-2.42,10.52.63,9.1,7.42-1.66,7.94-4.26,15.69-6.48,23.52-1.18,4.15-2.83,8.19-3,12.58,0,1.11-.3,2.45,1,3.1s2.22-.19,3.12-.92c2.18-1.79,4.32-3.63,6.5-5.42.76-.62,1.58-1.44,2.52-.25a1.84,1.84,0,0,1-.09,2.67c-4.37,4.63-9.17,8.79-15.13,11.17-4.65,1.86-7.9-1.21-7.53-7.21a74.13,74.13,0,0,1,3.22-16.1c1.79-6.06,4.25-11.92,5.24-18.2.23-1.43.89-3.08-.61-4.16s-3-.26-4.24.45c-7.39,4.18-13.71,9.32-16.09,18-1.88,6.9-3.64,13.81-4.89,20.86a6.72,6.72,0,0,1-9.61,4.83c-1.88-.92-.85-2.23-.56-3.4,2.91-11.95,5.86-23.89,8.77-35.84a26.37,26.37,0,0,0,.77-3.92c.21-2.43-1-3.17-2.95-1.8-2.31,1.59-4.45,3.45-6.65,5.22-.78.64-1.54,1.44-2.55.46s-.56-1.83.23-2.59c4.79-4.65,9.68-9.26,16.4-10.92,5.26-1.3,6.57.24,5.51,5.5C186.76,192.46,185.46,194.92,186.08,198.14Z"></path><path class="cls-5" d="M248.69,228.54a51,51,0,0,1-10.47,8c-9.76,5.61-16.3,1.83-16.32-9.41,0-16.91,15.84-37.87,31.49-41.41a36.17,36.17,0,0,1,7.43-.66c2.17,0,4.23.18,5.91-1.77a2.63,2.63,0,0,1,3.23-.58c1.39.91.18,2.17-.14,3.12a333.11,333.11,0,0,0-9.42,35.67c-.59,2.74-2.55,6.68.24,8.27,2.56,1.47,5.17-2,7.69-3.5,1.2-.72,2.2-3.42,4-1.4s-.75,3.11-1.92,4.24c-4.21,4.09-8.85,7.63-14.48,9.47-6,2-8,0-6.66-6.22C249.47,231.28,250.11,230.16,248.69,228.54Zm-16.94-7.09c.11,3.25-.16,6.61,3.23,8.44,3.2,1.72,5.77-.54,8.33-1.88,1.41-.74,2.47-2.16,3.63-3.33,6.79-6.86,6.93-16.36,9.66-24.81,2.41-7.44.37-9.31-7.46-7.39a13,13,0,0,0-3.65,1.57C235.3,200.39,233.3,210.82,231.75,221.45Zm17.42,7.22.33.34.33-.33-.5-.33Z"></path><path class="cls-7" d="M241.16,306.26A91.22,91.22,0,0,0,225,307.93c-7.7-.15-15.4-.47-23.08.22a1.18,1.18,0,0,0-1.79.05c-8.73-.7-17.41.48-26.11.82-2.31,0-4.62-.13-6.93-.13-12.72,0-25.4.89-38.06,2,4.52-4.25,10.63-4.12,16.08-5.51,9.3-2.38,19-3.27,28.49-3.86,8.29-.52,16.81-.93,25.25-.63,6.95.25,13.92.46,20.88-.75,4.24-.74,8.58.1,12.88.72,7.73,1.11,15.46,1.75,23.3.31,2.34-.43,5.87-1.72,7.1,2.37l-9.1,1.35a2.32,2.32,0,0,0-2.76.38c-2.47-.46-4.82.21-7.18.73A2.13,2.13,0,0,0,241.16,306.26Z"></path><path class="cls-4" d="M344.9,382.1c2.59-3.41,6.38-3.18,10-3.12,12.07.18,24-.69,34.85-6.51,7.59-4.07,13.84-9.55,15.49-18.77.34-1.91,1.41-3.69,2.15-5.53l5.56,1.49,5.46.33a.48.48,0,0,0,.49.47,5.44,5.44,0,0,0,2.58,3.64c-2.15,5.58-7.18,6.67-12.75,7.21,1.56,1.9,3,1.08,4.21,1.48-.23.95-.13,2.31-.74,2.8-6.28,5.08-9.71,13.62-18.72,15.42-2,.41-3.32,2.08-4.45,3.77-10.79,0-21.58.11-32.36,0C352.59,384.76,348.28,385.32,344.9,382.1Z"></path><path class="cls-7" d="M421.23,309.56c-10.4-4.15-21.28-4.7-32.29-4.31l-46-3.72c1.17-1.9,3.1-1.5,4.84-1.54s3.62-.26,4.28-2.41c3,.33,5.91.79,8.88,1,11.65.7,23.11-.12,34.11-4.41a119.25,119.25,0,0,1,21.79-.14Z"></path><path class="cls-4" d="M389,384.78c1.13-1.69,2.42-3.36,4.45-3.77,9-1.8,12.44-10.34,18.72-15.42.61-.49.51-1.85.74-2.8,3.74-.56,7.89-3.77,10.69,1.72.07.15.91-.08,1.39-.14l.46.18c2.36,1,6.37.21,6.62,3.22.19,2.27-3.86,1.37-5.72,2.74-2.66,2-5.73,3.39-8.35,5.41-3.89,3-8.77,3.39-13.2,5.44,4.95,1.65,10.13.83,15.85,2.75-2.45,1.65-4.47,1.47-6.48,1.34-4.48-.28-9-.6-13.46-.78-1.76-.07-4.17-.39-4,2.37s2.54,2.1,4.31,2c1.46-.05,2.93-.29,4.95-.5-1,1.81-1.76,3.16-2.49,4.52-.51.94-1.59,2.07-2.26,1.43C397.46,390.91,390.11,391.73,389,384.78Z"></path><path class="cls-8" d="M386,150.93c2.87,3.66,3.62,8.18,4.6,12.5s2.53,5.77,7.17,4.63a53.64,53.64,0,0,1,35.52,3.18c9.71,4.35,15,13.1,12.79,21.65-1.25,4.92-4.68,8.21-8.86,10.86-3.48,2.21-7.25,4.19-8.69,8.5s-.22,7.05,4.16,8.5c2.51.84,5.2,1.23,7.15,3.26l-2,1c-2.48-.93-5-1.84-7.45-2.79-6.8-2.6-8.51-8.71-4.37-14.84,3.08-4.56,8-6.93,11.92-10.43,6-5.29,6.67-12.66,1.37-18.47a21.65,21.65,0,0,0-8.93-6.18,57.86,57.86,0,0,0-33.34-1.73c-2.88.7-4,1.92-3.11,4.83,2.08,7,4.09,14,6.13,20.95-.41.34-.81.69-1.21,1-2.79-2.55-2.62-6.23-3.33-9.46-.74-3.39-2.17-4.83-5.6-3.9l.06-4.19c2.6-.84,2.42-2.59,1.78-4.77-2.08-7.18-4-14.4-6-21.6Z"></path><path class="cls-9" d="M378.08,183.77l-4.76.8L371.94,182l-2-2.88c-2.15-4.31-4.23-8.65-6.46-12.9-1.63-3.11-3.66-5.54-7.33-6.92-3.95-1.49-5.8-5.53-6.36-9.53-1.16-8.41-2.48-16.73-6.2-24.48a2.09,2.09,0,0,1,.62-2.59c3.26,2,5.11,5.92,8.89,7.31-1,1.68-.85,3.11,1,4.13l1,1-.05,0c-.2,1.25,1.21,2.41.09,4a31.27,31.27,0,0,0-2.43-3.12c-.79-.8-2.51-.64-2.13.37,1.43,3.79-1,8.37,2.48,11.65l.22,2.34A7,7,0,0,0,356,156l1,1,.61.33-.64-.3-1-1v-3c2.86-.67,4.11,5.11,7.61,1.92,4.42,3.41,3.45-.93,3.25-2.59-.32-2.74-1.42-5.38-2.19-8.07l.94-.71c4.5,3.8,3.82,9.28,4.64,14.28l-4,2.33c-.43,2.17.81,3.75,1.79,5.48C371.37,171.67,374.71,177.73,378.08,183.77Z"></path><path class="cls-4" d="M96.07,326.94a3.22,3.22,0,0,0-3.45-1l-1.51-1.17c-.42-.88-1.23-2.14-.22-2.67,3.93-2,6.56-6.33,11.92-6,5.71.3,11.52.8,17.21-.64l1,.56c.3,2.71-1.11,4.63-2.84,6.51-1.47,1.6-2.63,3.61-1.77,5.82,1,2.43,3.32,1.48,5.18,1.6,0,.31,0,.62,0,.93l-.26,0-.24.13-8,0c-2.45-.82-4.68-2.38-7.44-2.11a2.4,2.4,0,0,0-2.46-.64l-5.54-.28Z"></path><path class="cls-2" d="M345.76,199.71c.2,1.5.49,3-.61,4.34a4.6,4.6,0,0,0-3.72,2.16c-7.18,9-13.68,18.47-18.14,29.1-3.43,8.19-5.19,16.86-4.2,25.84.24,2.17-.1,4.84,2.8,5.84.17.93.29,1.89,1.23,2.43a1.23,1.23,0,0,1-.11.86c-1.69.91-.93,1.94-.14,3,.43.91.85,1.81,1.27,2.72l.72,1.13,1.89,2,1.14,1.2c.42,1.17.84,2.34,1.27,3.5l-.16.2c-8.17-6-11.13-14.71-11.84-24.15-1.24-16.62,5.79-30.71,14.87-43.93C336,210.07,339.86,204,345.76,199.71Z"></path><path class="cls-8" d="M395.09,294.15c-11,4.29-22.46,5.11-34.11,4.41-3-.19-5.92-.65-8.88-1-2.82-1.09-6.17-.83-8.42-3.36,8.43-.26,16.87-.71,25.3-.72C377.68,293.49,386.39,293.91,395.09,294.15Zm-33.91,2.05-.13.43H374v-.43Z"></path><path class="cls-4" d="M129,310.89c12.66-1.11,25.34-2,38.06-2,2.31,0,4.62.08,6.93.13-.13,2.92-1.59,4.37-4.48,3.54-3.21-.92-6.18-.32-9.15.78a25.54,25.54,0,0,1-15.49.64c-1.36-2.26-3.48-1.4-5.4-1.33-3.83.15-7.65.36-11.47.43-1.62,0-3.47.17-4-2.09Z"></path><path class="cls-9" d="M348.38,184.48l-3.62,2c-2.93-3.45-5.38-7.26-10.19-8.8a5.08,5.08,0,0,1-3.68-6.14c2,1.2,3,3.56,5.26,4.44,1.62.62,3.49,1.32,4.33-.65,1.06-2.51,1.11-5.53-1.18-7.31s-4.66-5.08-8.29-2l-.06.06c-.75-.17-1.48-.74-2.25-.06l-1.7,0c-.56-2.73-1.13-5.46-1.67-8.19-.15-.81-.3-1.71.59-2.18a1.52,1.52,0,0,1,2.05.87c2.25,4.22,6.5,5.92,10.29,8.16,4.67,2.76,6.11,7.9,9.1,11.9l-.63.73c-2.43-.13-3.11.83-1.68,2.88C346.09,181.69,347.26,183.06,348.38,184.48Zm-19.92-21.56v-.73c-.09.12-.25.24-.26.36S328.36,162.79,328.46,162.92Z"></path><path class="cls-8" d="M374.77,148.1c-4.28-3.36-4.53-9-7.51-13.19-1.37-1.92.35-3.82,2.39-4.63a41.76,41.76,0,0,1,13-3c2.72-.16,5,.93,5,4.16.06,5.27.13,10.55-1.88,15.58l-1.26-.38c.14-1,.32-1.94.4-2.92.29-3.27,1.5-6.84.57-9.72-1.13-3.49-5.47-.84-8.08-2.19-.24-.12-.32-.55-.48-.83,1.62-.19,3.46.53,5.1-1.48a6.68,6.68,0,0,0-5.06,1.53h-4.71c3,1.82,4.75,3.22,4,6.15a6.73,6.73,0,0,1-1.28-1.11c-.89-1.36-2.08-2.51-3.66-1.58-1.89,1.1-.46,2.75.07,3.92,1.78,3.92,5.43,6,8.72,8.46A11.87,11.87,0,0,0,374.77,148.1Z"></path><path class="cls-8" d="M451.68,290a.64.64,0,0,1-.74-.48,8,8,0,0,0-4.65-4.8c-1.8-4.72-5.86-7.47-9.35-10.72l-.26-.19.21.24c1.23,5.09,4.43,8.6,8.87,11.13l2.35,4c-2.3.83-4.63.39-7,.18-1.57-6.62-6.59-11.59-8.54-18l2.32-1.26h0l.95,0,.29-.25c8.55,8.49,17.2,16.89,24.2,26.78l-.8.69c-2.36-1.58-3.51-4.7-6.66-5.28l0,0A2.33,2.33,0,0,0,451.68,290Z"></path><path class="cls-9" d="M384.51,146.68l1.26.38c.08,1.29.16,2.58.25,3.87l-.24,2.58c-2-1.52-3.95-1.43-3.15,1.4,2.35,8.35,3.5,17.08,7.39,25l-.06,4.19-1.79.19-4.45.87A1,1,0,0,1,383,185c-.16-1.51-.32-3-.47-4.52,2.47-1,4.11-2.58,3.28-5.56-1-3.63-1.86-7.3-3.06-10.87-.85-2.55-1.91-.32-2.86.14v-.07c.83-3.63,4.44-7.8-2-10a1.78,1.78,0,0,1-.11-.76c-.22-.41-.45-.82-.68-1.22l-2.34-4a11.87,11.87,0,0,1,5.33-1.19Z"></path><path class="cls-7" d="M413,349.66l-5.56-1.49c.06-1.82.24-3.64-2.18-4.26-1-.25-2-1.18-1.07-2.16,2-2.05.85-3-1-3.94-1-.54-1-1.64-1.11-2.6,4.15-1.48,8.37-2.48,12.83-2l1.52,1.47C409.71,338.4,412.15,344.22,413,349.66Z"></path><path class="cls-8" d="M457.66,317.49c-1.58.31-2.93,0-3.74-1.53.08-.27.17-.55.25-.83l-.23.85c-1.72-.07-2.73-1.37-3.95-2.31q-5.46-9.44-10.9-18.87l1.92,0c4.53,5.43,6.9,12.39,12.37,17.23-1.09-6.61-7-11.09-7.84-17.77l2.11-.37c2,5.6,5.07,10.62,7.89,15.79C456.88,312.11,458.44,314.48,457.66,317.49Z"></path><path class="cls-10" d="M331,166c3.63-3.08,6,.23,8.29,2s2.24,4.8,1.18,7.31c-.84,2-2.71,1.27-4.33.65-2.28-.88-3.27-3.24-5.26-4.44l.07,0q-1.14-2.78-2.26-5.55c.77-.68,1.5-.11,2.25.06l.37.11Zm3,3,0,0-.14-.2Z"></path><path class="cls-7" d="M336,302c-10.32.82-20.57,3.31-31,1,1.35-1.36,3-2.31,4.87-1.72,3.21,1,6.19-.09,9.22-.61C324.82,299.69,330.38,300.84,336,302Z"></path><path class="cls-7" d="M303,302.57c-8.54-1.72-17.05-.67-25.57.23a46.86,46.86,0,0,1-5.43,0c.15-1,.37-2.28,1.43-2.38,9.23-.83,18.47-1.21,27.69,0C302.13,300.56,302.63,301.61,303,302.57Z"></path><path class="cls-7" d="M425,364.37c-.48.06-1.32.29-1.39.14-2.8-5.49-6.95-2.28-10.69-1.72-1.18-.4-2.65.42-4.21-1.48,5.57-.54,10.6-1.63,12.75-7.21,1.06,1,5,1,1.4,3.74-1.34,1-.61,1.7.48,2C426.38,360.49,425.63,362.42,425,364.37Z"></path><path class="cls-7" d="M124.08,311c.49,2.26,2.34,2.12,4,2.09,3.82-.07,7.64-.28,11.47-.43,1.92-.07,4-.93,5.4,1.33l-.85.8c-7.73-.88-15.36.36-23,1.18l-1-.56C120.33,313,121.15,311,124.08,311Z"></path><path class="cls-9" d="M437.88,225.05l2-1c7.57,5,6.37,12.53,5.7,19.9L442,243C443.47,236.37,443,230.17,437.88,225.05Z"></path><path class="cls-8" d="M442,243l3.59.9c0,5.14-3.1,9.07-5.31,13.34l-.48-.35c-.28-.44.27-2.29-1-.91-1,1-1.23,2.67-1.81,4l0,0h-2C435.85,253.74,440.74,249.14,442,243Z"></path><path class="cls-8" d="M379.88,164.14c.95-.46,2-2.69,2.86-.14,1.2,3.57,2.06,7.24,3.06,10.87.83,3-.81,4.52-3.28,5.56l-2.85-4.21c1.5-.32,3.46,0,4.08-1.78.4-1.16-1.11-1.23-1.93-1.57C381.17,170,380.53,167.05,379.88,164.14Z"></path><path class="cls-8" d="M450.81,293.92l1.12-1.89,1,0,0,0c1.25,3.42,3.8,5.56,7,7,.16.2-.22.85.5.6l-.51-.6c-.11-.57-.23-1.15-.35-1.73l.8-.69a7.54,7.54,0,0,1,1.28.78c1.52,1.37,3.29,3,1.32,5-1.6,1.6-3.46.43-4.82-.9C455.64,299,453.25,296.41,450.81,293.92Z"></path><path class="cls-8" d="M354,134.1c-1.82-1-1.95-2.45-1-4.13a35.62,35.62,0,0,1,12,12l-1.81.26c-3.43-1.64-3.95-6.64-8.31-7.21l.05,0Z"></path><path class="cls-8" d="M369.9,179.08l2,2.88c-4.59,1.42-9.11,2.95-11,8.07l-3-.8c0-1.12-.05-2.24-.08-3.37C362.89,185.42,365.7,181,369.9,179.08Z"></path><path class="cls-8" d="M366.16,160.18l4-2.33c3.55,4.61,7.27,9.13,9.08,14.81l-.89.52c-2.35-3.42-4.85-6.75-7-10.3C370.11,160.74,368.65,159.65,366.16,160.18Z"></path><path class="cls-7" d="M79.05,346.24a74.83,74.83,0,0,1,14.24,0c-5.18,2.59-9.87,1.36-14.28,2.05C79,347.58,79,346.91,79.05,346.24Z"></path><path class="cls-8" d="M377.9,154.08c6.43,2.19,2.82,6.36,2,10A26.53,26.53,0,0,1,377.9,154.08Z"></path><path class="cls-2" d="M337.16,289a6.31,6.31,0,0,1-4.46.38c0-2.64-2.91-3.31-3.7-5.42l.15-.19,2.44.27,1.33.91.07,0,1.91,1.44,2,1.46Z"></path><path class="cls-9" d="M355.1,183.67l-2.91.21c-.75-2.45-3-3.75-4.41-5.67.2-.19.38-.39.57-.59C351.61,178.51,353.57,180.86,355.1,183.67Z"></path><path class="cls-9" d="M434.93,270l-2.32,1.26-1.73-.17c0-.46-.09-.91-.14-1.36,1.1-1.83,2.13-3.72,4.19-4.69l0,0c.05,1.1-.87,2.2,0,3.3C434.9,268.87,434.92,269.43,434.93,270Z"></path><path class="cls-9" d="M381.82,172.87c.82.34,2.33.41,1.93,1.57-.62,1.75-2.58,1.46-4.08,1.78l-1.29-3,.89-.52Z"></path><path class="cls-7" d="M121.58,330.82c0-.31,0-.62,0-.93l5-.87,1.18.5,1.17.6c.66,1.3.92,2.52-.72,3.33C127,330.07,124,331.29,121.58,330.82Z"></path><path class="cls-8" d="M328.7,166q1.13,2.77,2.26,5.55c-3.41-.34-3.59-3-4-5.51Z"></path><path class="cls-7" d="M123.25,335.05c-1.79,1.9-4,1.61-6.29,1.32C118.72,334.29,121.08,335.13,123.25,335.05Z"></path><path class="cls-8" d="M439.2,259.21a9.68,9.68,0,0,1-3.18,4.87l-.36-.27c.43-1.27.86-2.55,1.3-3.83l0,0,1.83-1.18Z"></path><path class="cls-7" d="M76,343.24l-4,.42C73.16,341.76,74.49,341.55,76,343.24Z"></path><path class="cls-7" d="M113,330.94l8,0A7.68,7.68,0,0,1,113,330.94Z"></path><path class="cls-7" d="M428,336a8.42,8.42,0,0,1,5-1.13C431.45,336,430,337.08,428,336Z"></path><path class="cls-7" d="M67.1,352.51c-2.08-.59-1.41-2.24-1.4-3.63C67,349.77,67.08,351.13,67.1,352.51Z"></path><path class="cls-7" d="M418,335a6.87,6.87,0,0,1,3.91,1.13C420.12,337.3,418.94,336.5,418,335Z"></path><path class="cls-7" d="M99.94,341.7a2.67,2.67,0,0,1-2.82,1C97.83,341.76,98.57,340.89,99.94,341.7Z"></path><path class="cls-7" d="M110.37,338.09a3.77,3.77,0,0,1-3.3,1.42C107.77,338.11,109,338,110.37,338.09Z"></path><path class="cls-7" d="M59.62,349.13a3,3,0,0,1-2.53,1.44A2.49,2.49,0,0,1,59.62,349.13Z"></path><path class="cls-7" d="M115,336.73l-1.9.66C113.46,336.51,114,336.15,115,336.73Z"></path><path class="cls-7" d="M89.9,342.61l-3.7.06A3.27,3.27,0,0,1,89.9,342.61Z"></path><path class="cls-8" d="M434.93,270c0-.57,0-1.13,0-1.7.42.5.85,1,1.27,1.48l-.28.25c-.32,0-.64,0-1,0Z"></path><path class="cls-9" d="M363.24,142.25l1.81-.26c.16.53.33,1.06.5,1.59l-.94.7C364.16,143.6,363.7,142.93,363.24,142.25Z"></path><path class="cls-8" d="M440.25,257.25l-1.05,2-.46-.36,1-2Z"></path><path class="cls-7" d="M103.14,328.19a2.4,2.4,0,0,1,2.46.64Z"></path><path class="cls-8" d="M436,264.08l-1.12.92,0,0,.72-1.23Z"></path><path class="cls-8" d="M377.11,152.1c.23.4.46.81.68,1.22C377.57,152.91,377.34,152.5,377.11,152.1Z"></path><path class="cls-9" d="M347.36,176.6l1,1c-.19.2-.37.4-.56.59l-1.06-.88Z"></path><path class="cls-7" d="M96.07,326.94l1.53,1Z"></path><path class="cls-7" d="M91.11,324.76l1.51,1.17Z"></path><path class="cls-7" d="M75.59,349l-1.47.83Z"></path><path class="cls-7" d="M72.62,350l-1.51,1.13Z"></path><path class="cls-7" d="M418.9,350.46a.48.48,0,0,1-.49-.47A2.19,2.19,0,0,0,418.9,350.46Z"></path><path class="cls-3" d="M140,334.88c1.89-4.62,5.35-7.45,10-9.07a103.64,103.64,0,0,1,31.76-5.75,542.2,542.2,0,0,1,74.15,3.63c10.54,1.2,21.22.12,31.85-1.05,20.48-2.25,41-3.6,61.61-1,11.11,1.41,22.29,2.22,32.1,8.19,4.14,2.52,8.68,5.12,9.48,10.77-5.93,2.46-6.27,4.7-1.31,8.89,1,.82,2.48,1.36,1.83,3-.41,1.07-1.43,1.13-2.49,1s-3-1.41-3.25.54,1.87,1.79,3.28,2c1,.12,2,.14,2.94.21-8.91,11.75-21.64,13.08-35.14,14-17.52,1.21-35.11,1.66-52.13-2.05-15.84-3.45-31.71-3.74-47.57-4-16-.29-32.06,2.18-48.07,4-17.72,2-35.61,5-53.55.81-11.59-2.69-19.81-10.7-21-21.25-.31-2.87,0-5.45,3.72-5.76.35,2.11.82,4.2,1.05,6.32.9,8.32.87,8.32,9.18,7.57L150,355l1.73-1.21A19.24,19.24,0,0,1,159,357.1a13,13,0,0,0,9.88,2.63c6.3-1.09,12.61-.92,18.88-.68,7.9.3,15.51-1.47,23.22-2.42,2.35-.3,5.07-.74,6.09-3.62l2.91-.38c4.5,1,9,2.19,13.1-1.26,1.75-.43,3.29-1,2.8-3.35,3.08-.07,4.28-1.78,4.14-4.7-.13-2.77-.59-5.26-4.19-5.26-2.4-2.76-5.62-2.08-8.68-2.05-2.1-.39-4.38-3.9-6.19.37L217,336c-.34-2.19-2.08-2.73-3.81-3.46-4.29-1.83-8.77-1.6-13.26-1.51l-3-.29c-6.93.5-13.89.81-20.8,1.54-7.81.82-15.89.88-22.4,6.42-.51.43-1.6.19-2.42.26-2.05-3.4-5.41-3.71-8.87-3.8Zm113.75,1.19c-1.16-.57-2.93-.18-3.54-1.5-2.23-4.8-3.18-1.79-4.39.59a20.15,20.15,0,0,1-1.66,2.4c-.33,4.1-2.84,8.72,2.76,11.39,2.34,1.95,4.68,3.83,6.8-.25a2.92,2.92,0,0,1,2.35-1.75c1.54,3.23,4.08,4.49,7.59,3.88l2.25-.59,2.92-.34,3,.09c1.82,1.81,3.88,2.54,6.34,1.35,10.9,2.64,21.48,6.36,32.62,8.26,13,2.22,26,2.38,39,2A73.19,73.19,0,0,0,379,355c7-4.67,7-11.05,0-15.15-6.64-1.82-12.3-5.61-19.4-7.15a162.79,162.79,0,0,0-43.3-3.26c-12.28.61-24.15,3.49-36.07,6.14-4.08-.57-7.77-.32-9.31,4.43h-1.82c-.48-1.31.48-3.21-1.35-3.91-1.54-.58-1.88.8-2.28,1.88a11.47,11.47,0,0,1-5.78,1c-.31-2.16-1.15-3.64-3.71-2.94Z"></path><path class="cls-4" d="M126.63,329l-5,.87c-1.87-.12-4.24.83-5.19-1.6-.86-2.21.3-4.22,1.77-5.82,1.73-1.88,3.14-3.8,2.84-6.51,7.65-.82,15.28-2.06,23-1.18-1.69,4-5.22,6.11-8.84,7.91-3.25,1.61-5.92,3.46-6.24,7.43l-1.16-.6Z"></path><path class="cls-11" d="M148.48,355.88c-8.31.75-8.28.75-9.18-7.57-.23-2.12-.7-4.21-1.05-6.32-.08-1.34-.15-2.69-.23-4l.07-1,1.88-1.38a2.87,2.87,0,0,0,2.52-.45c3.46.09,6.82.4,8.87,3.8.85,2.35-3.07,4.47-.45,6.8,2.83,2.53,2.33,5.22.86,8.1L150,355Zm-3-9.13c-2-.21-3.25.49-3.11,2.71.1,1.76-.24,4,2.38,4.06,2.08.07,4-.71,4.33-3.14S147.68,346.94,145.47,346.75Zm-4-6c.17,1.78.63,3.34,2.89,3.12,1.86-.18,3.16-1.24,3.1-3.16s-1.55-2.69-3.42-2.68S141.25,338.89,141.44,340.77Z"></path><path class="cls-11" d="M392,356.28c-1-.07-2-.09-2.94-.21-1.41-.17-3.52-.11-3.28-2s2.09-.66,3.25-.54,2.08.05,2.49-1c.65-1.68-.87-2.22-1.83-3-5-4.19-4.62-6.43,1.31-8.89,1.76.8,5.54-.59,4,3.73-1.54-.08-3.61-1.52-4.49.31-1.05,2.16,1.7,2.28,2.77,3.31a10.33,10.33,0,0,0,1.64,1.08C396,352.32,395.29,354.83,392,356.28Z"></path><path class="cls-12" d="M394.9,349.05a10.33,10.33,0,0,1-1.64-1.08c-1.07-1-3.82-1.15-2.77-3.31.88-1.83,2.95-.39,4.49-.31C395,345.92,394.93,347.49,394.9,349.05Z"></path><path class="cls-13" d="M200.14,308.2a1.18,1.18,0,0,1,1.79-.05A1.21,1.21,0,0,1,200.14,308.2Z"></path><path class="cls-14" d="M142.49,335.13a2.87,2.87,0,0,1-2.52.45,3.25,3.25,0,0,1,0-.7Z"></path><path class="cls-12" d="M138.09,337l-.07,1a3.38,3.38,0,0,1-.16-.7C137.85,337.17,138,337.06,138.09,337Z"></path><path class="cls-13" d="M251.16,305.27a2.32,2.32,0,0,1,2.76-.38A1.78,1.78,0,0,1,251.16,305.27Z"></path><path class="cls-13" d="M241.16,306.26A2.13,2.13,0,0,1,244,306,2,2,0,0,1,241.16,306.26Z"></path><path class="cls-7" d="M320.41,202.11c-1,9.51-3.78,19.78-11,28.44a10,10,0,0,1-10.26,3.57c-5.79-1.07-7.75-4-6.37-9.66,1.06-4.35,2.18-8.69,3.32-13,2.22-8.49,8.19-13.94,15.4-18C316.37,190.66,320.48,194.24,320.41,202.11Z"></path><path class="cls-15" d="M337.16,289c-.09-.37-.17-.73-.26-1.1L339,284h.94a13.38,13.38,0,0,0,5.24,2.43l1.66,0c5.08-.86,9.28-4,14.14-5.44l.9-.63c6.59-3,5.09-9,5.1-14.35-1.46-6.85-7.4-11.21-12.23-8.26A53.13,53.13,0,0,1,342.64,263c-3.95-3.69-.7-7.16.32-10.7,5.72.31,9.51-2.62,12.26-7.3,2.58-1.13,2.67-3.45,2.74-5.77,9.25-1.93,15.06-8.31,20.17-15.6,2.39,0,3.83,1.64,5.35,3.18,2.31,2.34,4.31,5,7.3,6.58a23.75,23.75,0,0,0,5.79,5.7c1.66,2.33,2.56,4.63,1.61,7.71a8.35,8.35,0,0,0,1.66,8.29,6.5,6.5,0,0,0,4.08,2.91c4.79,1.89,8.92.15,12.93-2.34a3.4,3.4,0,0,0,2.46-2.3c3.37-1.63,5.13-4.73,6.75-7.8,3.72-7,1.79-12.58-5.31-15.92a35.94,35.94,0,0,0,2.76-2.76c1-1.22,3.71-1.92,1.87-4.23s-3.07-.14-4.51.78c-3.14,2-5.67,5.09-9.72,5.48l-6.24-13.77c6.78-3.82,14.33-6.37,20.08-11.92,3.85-3.7,5.62-8.07,4.53-13.49-1-4.9-4.78-5.41-8.66-5.91,0-4.24,1.08-9.08-4.87-10.34a19.83,19.83,0,0,0-12.5,1.89c-2.36,1.08-3.62,3.58-2,5.76,2.06,2.81,2.26,6.15,3.7,9.08q-2.54,3.08-5.06,6.16c-2-7-4.05-14-6.13-20.95-.87-2.91.23-4.13,3.11-4.83a57.86,57.86,0,0,1,33.34,1.73,21.65,21.65,0,0,1,8.93,6.18c5.3,5.81,4.59,13.18-1.37,18.47-4,3.5-8.84,5.87-11.92,10.43-4.14,6.13-2.43,12.24,4.37,14.84,2.47,1,5,1.86,7.45,2.79,5.15,5.12,5.59,11.32,4.09,18-1.23,6.13-6.12,10.73-7.06,17h0c-3,1.93-5.54,4.18-6,8h0c-5.12,2.36-8.14,7.18-12.37,10.58-5.91,2.55-10.73,7.28-17.27,8.56a2.71,2.71,0,0,0-2.27,1.17,4.83,4.83,0,0,0,0,.85,51.19,51.19,0,0,1-13,.05v-2.77c4.74-2.16,9.89-3.66,12.91-8.44a6.29,6.29,0,0,0,.13-7l-.15-2.84-.72-2.1a5.34,5.34,0,0,1-.22-1L395,264l-.05-.05L394,263l-3.13-1.19a4.08,4.08,0,0,0-4.88.11c-3.51.45-6.4,1.91-8.17,5.13-1.1,1.61-.84,3.42-.75,5.2l-.28,1.79-.8,1.09-1.11,3.79-.32.15a2.42,2.42,0,0,0,0,2.76c.89,2.57,3.13,3.57,5.34,4.61,0,.91,0,1.83,0,2.74C365.67,289.62,351.41,289.89,337.16,289Z"></path><path class="cls-15" d="M321.89,267c-2.9-1-2.56-3.67-2.8-5.84-1-9,.77-17.65,4.2-25.84,4.46-10.63,11-20.1,18.14-29.1a4.6,4.6,0,0,1,3.72-2.16l-7.35,29.76c-3.18.35-6.55.32-7.92,4.12-.58,1.19-1.1,2.4-1.75,3.55-3.82,6.77-2.49,10.17,4.92,12.45C332.62,261.1,328.58,265.18,321.89,267Z"></path><path class="cls-15" d="M340.13,269.08c3.11.05,6.21.15,9.32.12,1.49,0,3.65,1,4.06-1.39.49-2.8-2.14-1.64-3.4-2.2-.45-.2-.93-.32-1.39-.48,1.53-1.26,3.13-2.45,4.57-3.8,3.28-3.12,7-3.05,9.78.53a31.79,31.79,0,0,1,2.7,5.3c.21,6.24-2.74,10.32-8.51,12.51-2.47.94-5,1.87-7.33,3-4,2-7,1.13-9.22-2.7A48.21,48.21,0,0,1,340.13,269.08Z"></path><path class="cls-7" d="M373.63,216.15a31.31,31.31,0,0,1-7.8,14.75,11.14,11.14,0,0,1-16.38-.38c-2-2.31-.11-4.35.35-6.5,3.52.41,6.49-2.47,10.14-1.58,5.2,1.28,9.55.49,11.55-5.35C371.79,216.22,372.81,216.22,373.63,216.15Z"></path><path class="cls-1" d="M339,284l-2.06,3.92-2-1.47L333,285l-.07,0-1.33-.91-2.44-.27-1.26-3.51-1.14-1.2-1.89-2-.72-1.13c-.42-.91-.84-1.81-1.27-2.72.05-1,.1-2,.14-3a1.23,1.23,0,0,0,.11-.86L336,269c.1,2-.37,4.17,1,6,0,1.23.06,2.46.1,3.68l.79,1.3a1.63,1.63,0,0,0,.58.08c.21.92.41,1.85.61,2.77C339,283.22,339,283.61,339,284Z"></path><path class="cls-15" d="M350.79,220.88a56.1,56.1,0,0,1,3.66-13.15l2.64-.11,5.94.2a8.9,8.9,0,0,0,1.26.8c2.58,1.13,5.84,2,4.92,5.71s-3.17,6.3-7.52,5.74C358,219.6,354.42,220.65,350.79,220.88Z"></path><path class="cls-10" d="M378.38,173.18l1.29,3,2.85,4.21c.15,1.51.31,3,.47,4.52l-4.91-1.18c-3.37-6-6.71-12.1-10.13-18.11-1-1.73-2.22-3.31-1.79-5.48,2.49-.53,3.95.56,5.24,2.7C373.53,166.43,376,169.76,378.38,173.18Z"></path><path class="cls-10" d="M360.91,199.09a8.59,8.59,0,0,1,4.6-3.36L371,202a18.12,18.12,0,0,0,5.19,5.24,13.58,13.58,0,0,1-1.82,7.39,26.4,26.4,0,0,0-8-7.9l-2.22-2.91C363,202.3,361.19,201.21,360.91,199.09Z"></path><path class="cls-8" d="M366.35,206.75a26.4,26.4,0,0,1,8,7.9c-.24.5-.47,1-.71,1.49-.82.08-1.84.08-2.14,1-2,5.84-6.35,6.63-11.55,5.35-3.65-.89-6.62,2-10.14,1.58l1-3.14c3.63-.23,7.2-1.28,10.9-.81,4.35.56,6.63-2.13,7.52-5.74s-2.34-4.58-4.92-5.71a8.9,8.9,0,0,1-1.26-.8Z"></path><path class="cls-15" d="M386.19,204c-.58-3.25,0-6.46.39-9.68,2.19-.82,3.15.53,4.22,2.14,1.58,2.38,2.29,5.41,5,7a25.7,25.7,0,0,1-3.15,7.62C389.35,209.71,390,204.81,386.19,204Z"></path><path class="cls-7" d="M358,239.25c-.07,2.32-.16,4.64-2.74,5.78-.56-1.86-1.25-2.1-2.62-.49-2.33,2.71-5.06,4.86-9,4.54.27-1.11.5-2.24.83-3.33.79-2.66.88-6.18,2.66-7.69s4.75.83,7.19,1.62C355.36,240,356.73,239.42,358,239.25Z"></path><path class="cls-10" d="M386.19,204c3.78.86,3.16,5.76,6.46,7.06l-2,8.85-6.77-6.21A28.33,28.33,0,0,1,386.19,204Z"></path><path class="cls-10" d="M337.16,236q-1.68,7.52-3.37,15c-6.25-1.95-6.45-2.69-2.78-9.94C332,238,333.38,235.59,337.16,236Z"></path><path class="cls-10" d="M380,220.87c.66-1.83,1-3.88,2.92-5,2.79,1.69,4.32,4.92,7.49,6.14,0,2.36.07,4.71.1,7.07C385.62,228.17,384.29,222.64,380,220.87Z"></path><path class="cls-8" d="M365.77,267.16a31.79,31.79,0,0,0-2.7-5.3c-2.75-3.58-6.5-3.65-9.78-.53-1.44,1.35-3,2.54-4.57,3.8-2.33.19-4.47-.2-6.08-2.11a53.13,53.13,0,0,0,12.07-5.28c4.83-3,10.77,1.41,12.23,8.26Z"></path><path class="cls-8" d="M395.8,203.39c-2.71-1.57-3.42-4.6-5-7-1.07-1.61-2-3-4.22-2.14-1.11-3-1.19-6.32-2.86-9.14l4.45-.87c1,6.71,4.74,12,8.83,17.06A2.37,2.37,0,0,1,395.8,203.39Z"></path><path class="cls-9" d="M331,241.06c-3.67,7.25-3.47,8,2.78,9.94-.25,1-.5,1.95-.74,2.93-7.41-2.28-8.74-5.68-4.92-12.45.65-1.15,1.17-2.36,1.75-3.55C330.26,239,330.63,240,331,241.06Z"></path><path class="cls-10" d="M361,190c1.86-5.12,6.38-6.65,11-8.07l1.38,2.61C369.46,186,366.54,189,363,191L361,190Z"></path><path class="cls-8" d="M380,220.87c4.27,1.77,5.6,7.3,10.51,8.26.09,1.42.17,2.86.25,4.29-3-1.57-5-4.25-7.3-6.59-1.52-1.54-3-3.14-5.35-3.18A3.6,3.6,0,0,1,380,220.87Z"></path><path class="cls-9" d="M343.62,249.08c3.92.32,6.65-1.83,9-4.54,1.37-1.61,2.06-1.37,2.62.49-2.75,4.67-6.54,7.6-12.26,7.29Z"></path><path class="cls-9" d="M371,202l-5.46-6.29c.88-2,2.55-2.7,4.63-2.6.57,2.67,2.53,4.58,3.73,6.91Z"></path><path class="cls-8" d="M360.91,199.09c.28,2.12,2.08,3.21,3.22,4.75-1.52,2.8-5.43,1.14-7,3.78l-2.64.11C355.67,204.15,358.58,201.83,360.91,199.09Z"></path><path class="cls-8" d="M337.06,278.68c0-1.22-.07-2.45-.1-3.68l.15-6.07,3,.15a48.21,48.21,0,0,0,.58,10.93l-2.28.05a1.63,1.63,0,0,1-.58-.08Z"></path><path class="cls-10" d="M373.87,200c-1.2-2.33-3.16-4.24-3.73-6.91,2.84-1.38,4.45.35,6,2.31,1.7,2.11-.29,3.11-1.25,4.43Z"></path><path class="cls-10" d="M346.73,177.33l1.06.88c1.43,1.92,3.65,3.22,4.4,5.67l-3.82.6c-1.11-1.42-2.28-2.79-3.32-4.27C343.62,178.16,344.3,177.2,346.73,177.33Z"></path><path class="cls-10" d="M357.93,189.23l3,.8h0a2.16,2.16,0,0,0,.68,2.1,13.32,13.32,0,0,1-1.84,2.22c-.8.63-1.73,1.74-2.88.9s-1.1-2.15-.23-3.4A19,19,0,0,0,357.93,189.23Z"></path><path class="cls-8" d="M373.87,200l1.05-.17c.19,2.5,3.58,4.46,1.24,7.39A18.12,18.12,0,0,1,371,202Z"></path><path class="cls-8" d="M390.43,222.06c-3.17-1.22-4.7-4.45-7.49-6.14.15-.81.05-1.73.9-2.27l6.77,6.21Z"></path><path class="cls-8" d="M331,241.06c-.38-1-.75-2.08-1.13-3.13,1.37-3.8,4.74-3.77,7.92-4.12-.22.72-.43,1.45-.64,2.17C333.38,235.59,332,238,331,241.06Z"></path><path class="cls-10" d="M337.11,268.93,337,275c-1.36-1.83-.89-4-1-6Z"></path><path class="cls-8" d="M361.63,192.12A2.16,2.16,0,0,1,361,190l2.06,1Z"></path><path class="cls-15" d="M439.09,294.8q5.45,9.43,10.9,18.87c-7.34-1.21-14.81-1.71-22-3.71.26-5.62-2.84-10.6-3.08-16.12l14,.12A1.33,1.33,0,0,0,439.09,294.8Z"></path><path class="cls-8" d="M399.27,287.12c6.54-1.28,11.36-6,17.27-8.56.22.27.45.53.67.79-.22.59-.44,1.18-.65,1.76,1.91.53,2.5-1.05,3.39-2.13l0,0,2,0c-.43,3.43.59,6.72.94,10.07l0,.14-2,0c-.11-2.08.38-5.36-2.08-5.35-3.15,0-1.49,3.29-1.7,5.22a25.6,25.6,0,0,1-11.42,0c1.2-1.58,3.76-1.75,4.22-4.09a3.83,3.83,0,0,0,3-1c.2-.21,1,.22.65-.58l-.64.6a4.06,4.06,0,0,0-3,1,20.66,20.66,0,0,0-8,4.23l-4.94-.09a4.83,4.83,0,0,1,0-.85Z"></path><path class="cls-15" d="M422.89,289.05c-.35-3.35-1.37-6.64-.94-10.07l0,0,1-1,0,0c3.69-1.29,6.09-.05,7.77,3.47,1.26,2.64,3.4,4.83,4.22,7.74-4,.36-8.06.69-12.08-.18Z"></path><path class="cls-10" d="M430.88,271.09l1.73.17c1.95,6.44,7,11.41,8.54,18a5.45,5.45,0,0,1-3.93-.25c-.92-1.92-1.89-3.81-2.74-5.76-1.67-3.85-5.55-6.63-5.54-11.3l0,0,1-1,0,0,.48.12Z"></path><path class="cls-10" d="M445.54,294.23c.83,6.68,6.75,11.16,7.84,17.77-5.47-4.84-7.84-11.8-12.37-17.22a2.08,2.08,0,0,0-.06-.86A6.9,6.9,0,0,1,445.54,294.23Z"></path><path class="cls-8" d="M428.94,272c0,4.67,3.87,7.45,5.54,11.3.85,2,1.82,3.84,2.74,5.76l-2.3.17c-.83-2.91-3-5.1-4.23-7.74-1.68-3.52-4.08-4.76-7.77-3.47,0-.67,0-1.35,0-2l0,0,1-1,0,0,1-1,0,0,1-1,0,0,2-1,0,0Z"></path><path class="cls-10" d="M427.06,309.94l-3.65-.26q-1.83-7.89-3.64-15.79l3,.14Q424.92,302,427.06,309.94Z"></path><path class="cls-8" d="M419.77,293.89q1.82,7.89,3.64,15.79l-2.19-.13q-2.16-7.77-4.34-15.54Z"></path><path class="cls-2" d="M427.06,309.94Q424.93,302,422.79,294l2.1-.19c.24,5.52,3.34,10.5,3.08,16.12l-.45.05Z"></path><path class="cls-10" d="M417.12,289.1c.21-1.93-1.45-5.2,1.7-5.22,2.46,0,2,3.27,2.08,5.35A5.09,5.09,0,0,1,417.12,289.1Z"></path><path class="cls-10" d="M379.93,289.18c0-.91,0-1.83,0-2.74l4.05,0v2.77A6.28,6.28,0,0,1,379.93,289.18Z"></path><path class="cls-10" d="M401.94,289.23a20.66,20.66,0,0,1,8-4.23l0,0c-.46,2.34-3,2.51-4.22,4.09A5.53,5.53,0,0,1,401.94,289.23Z"></path><path class="cls-10" d="M446.29,284.69a8,8,0,0,1,4.65,4.8l-2.83-.38-2.35-4Z"></path><path class="cls-10" d="M452.94,292l-1,0c-.09-.68-.17-1.37-.25-2.06A2.33,2.33,0,0,1,452.94,292Z"></path><path class="cls-2" d="M441,293.92a2.08,2.08,0,0,1,.06.86l-1.92,0a1.33,1.33,0,0,1-.22-.84Z"></path><polygon class="cls-10" points="422.89 289.05 422.83 289.03 422.92 289.19 422.89 289.05"></polygon><path class="cls-7" d="M231.75,221.45c1.55-10.63,3.55-21.06,13.74-27.4a13,13,0,0,1,3.65-1.57c7.83-1.92,9.87,0,7.46,7.39-2.73,8.45-2.87,17.95-9.66,24.81-1.16,1.17-2.22,2.59-3.63,3.33-2.56,1.34-5.13,3.6-8.33,1.88C231.59,228.06,231.86,224.7,231.75,221.45Z"></path><path class="cls-1" d="M249.17,228.68c.05-.11.1-.22.16-.33l.5.33-.33.33Z"></path><path class="cls-5" d="M390.43,222.06l.18-2.2,2-8.85a25.7,25.7,0,0,0,3.15-7.62,2.37,2.37,0,0,0,1.2-2.08l1.89-3.88c.4-.35.8-.7,1.21-1,1.68-2.06,3.37-4.11,5-6.16l2.25-1.8a31.77,31.77,0,0,1,10.26-4.57l3.2,0c3.88.5,7.68,1,8.66,5.91,1.09,5.42-.68,9.79-4.53,13.49-5.75,5.55-13.3,8.1-20.08,11.92-1.18.28-2.41.46-3,1.71-1.43,2.6-.93,5.45-.73,8.16.34,4.56,3,6.05,7.88,4.89l2.14-1c4-.39,6.57-3.48,9.71-5.48,1.44-.92,2.74-3,4.51-.78s-.85,3-1.87,4.23a38,38,0,0,1-2.76,2.77c-2,1.32-4.43,2.11-5.62,4.46h0l-2.4,1c-2.29-.28-3.38,1.94-5.25,2.53l-2.7,1-5.72.56-2.48-.08a23.75,23.75,0,0,1-5.79-5.7c-.08-1.42-.16-2.86-.25-4.28C390.5,226.77,390.46,224.42,390.43,222.06ZM403,211c7.15-2.27,12.54-5.94,16.29-11.65,1.93-2.94,2.66-6.59-.89-8.79-3.26-2-6.73-.44-8.8,2.29A31.94,31.94,0,0,0,403,211Z"></path><path class="cls-10" d="M390,179.88c-3.89-7.89-5-16.62-7.39-25-.8-2.83,1.18-2.92,3.15-1.4,2,7.2,3.94,14.42,6,21.6C392.44,177.29,392.62,179,390,179.88Z"></path><path class="cls-10" d="M398.89,197.43,397,201.31c-4.09-5.09-7.87-10.34-8.83-17.05l1.79-.19c3.43-.93,4.86.51,5.6,3.9C396.27,191.2,396.1,194.88,398.89,197.43Z"></path><path class="cls-10" d="M363.24,142.25c.46.68.92,1.35,1.37,2,.77,2.69,1.87,5.33,2.19,8.07.2,1.66,1.17,6-3.25,2.59-3.5,3.19-4.75-2.59-7.61-1.92l0,0c0-1,0-2,0-3a9.54,9.54,0,0,0-2.78-6.16c-.12,1.8-.2,2.92-.27,4.05-3.47-3.28-1.05-7.86-2.48-11.65-.38-1,1.34-1.17,2.13-.37A31.27,31.27,0,0,1,355,139c1.12-1.58-.29-2.74-.09-4C359.29,135.61,359.81,140.61,363.24,142.25Z"></path><path class="cls-8" d="M352.94,147.93c.07-1.13.15-2.25.27-4.05A9.54,9.54,0,0,1,356,150l-1.48.09-1.35.14C353.09,149.49,353,148.71,352.94,147.93Z"></path><path class="cls-10" d="M353.16,150.27l1.35-.14c.3,1.07.44,2.22,1.46,2.94l0,0c0,1,0,2,0,3l0,0A7,7,0,0,1,353.16,150.27Z"></path><path class="cls-10" d="M357,157.06l.64.3L357,157Z"></path><path class="cls-10" d="M355.93,156.05l1,1,0,0-1-1Z"></path><path class="cls-10" d="M354,134.1l1,1Z"></path><path class="cls-10" d="M323,270.28c0,1-.09,2-.14,3C322.08,272.22,321.32,271.19,323,270.28Z"></path><path class="cls-10" d="M326.75,279.09l1.14,1.2Z"></path><path class="cls-10" d="M324.14,276l.72,1.13Z"></path><path class="cls-10" d="M361.18,296.2h12.76v.43h-12.9Z"></path><path class="cls-8" d="M328.46,162.92c-.1-.13-.26-.25-.26-.37s.17-.24.26-.36Z"></path><path class="cls-10" d="M384.51,146.68l-4.41.23c-3.29-2.43-6.94-4.54-8.72-8.46-.53-1.17-2-2.82-.07-3.92,1.58-.93,2.77.22,3.66,1.58a6.73,6.73,0,0,0,1.28,1.11c.75-2.93-1-4.33-4-6.15H377l0,0c.16.28.24.71.48.83,2.61,1.35,7-1.3,8.08,2.19.93,2.88-.28,6.45-.57,9.72C384.83,144.74,384.65,145.71,384.51,146.68Z"></path><path class="cls-10" d="M377,131.07a6.68,6.68,0,0,1,5.06-1.53c-1.64,2-3.48,1.29-5.1,1.48Z"></path><path class="cls-10" d="M436.94,274c3.49,3.25,7.55,6,9.35,10.72l-.53.46c-4.44-2.53-7.64-6-8.87-11.13Z"></path><path class="cls-10" d="M459.92,299c-3.22-1.45-5.77-3.59-7-7,3.15.58,4.3,3.7,6.66,5.28.12.58.24,1.16.35,1.73Z"></path><path class="cls-9" d="M434.92,270c.32,0,.64,0,1,0Z"></path><polygon class="cls-10" points="436.89 274.02 436.68 273.78 436.94 273.97 436.89 274.02"></polygon><path class="cls-10" d="M453.94,316l.23-.85c-.08.28-.17.56-.25.83Z"></path><path class="cls-9" d="M331,166l.31.17-.37-.11Z"></path><polygon class="cls-9" points="333.97 169.01 333.8 168.85 333.94 169.05 333.97 169.01"></polygon><path class="cls-9" d="M333.94,169.05l0,0Z"></path><path class="cls-10" d="M428.94,272l-1,0,1-4h0c3.09-1.85,5.53-4.19,6-8h2c-.44,1.28-.87,2.56-1.3,3.83-.25.41-.49.82-.73,1.23-2.06,1-3.09,2.86-4.19,4.69l-.83,1.27,0,0-1,1Z"></path><path class="cls-10" d="M439.77,256.9l-1,2L436.91,260c.58-1.37.85-3,1.81-4C440,254.61,439.49,256.46,439.77,256.9Z"></path><path class="cls-10" d="M459.91,299l.51.6c-.72.25-.34-.4-.5-.6Z"></path><path class="cls-10" d="M333,285l1.91,1.43Z"></path><path class="cls-10" d="M331.59,284.07l1.33.91Z"></path><path class="cls-8" d="M429.91,271l.83-1.27c.05.45.1.9.14,1.36l-.49,0Z"></path><path class="cls-3" d="M126.63,329l1.19.5Z"></path><path class="cls-14" d="M379,355a73.19,73.19,0,0,1-29.2,6.68c-13,.35-26,.19-39-2-11.14-1.9-21.72-5.62-32.62-8.26,4.85-3.74,4.81-6.1-.17-9.76-.87-.64-2.35-.94-1.85-2.49.39-1.21,1.53-1,2.51-.94,2.38.22,2.61-.82,1.55-2.62,11.92-2.65,23.79-5.53,36.07-6.14a162.79,162.79,0,0,1,43.3,3.26c7.1,1.54,12.76,5.33,19.4,7.15-3.24.25-6.69-.36-8.71,3.39C366.57,350.09,370.14,355,379,355Zm-61.16-7.81h.07c-.17,2.48-.39,4.95-.5,7.43,0,1,.16,2.08,1.38,2.33a1.55,1.55,0,0,0,1.95-1.67c-.07-3.34,1.65-3.6,4.43-3.22,3,.41,5.1-1.37,6.25-4,1.43-3.21,1.49-6.43-.95-9.32-3.11-3.66-7.31-1.89-10.74-1.44-3.12.41-1.24,4.16-1.7,6.4A22.16,22.16,0,0,0,317.79,347.14Zm-19,4.84a2.42,2.42,0,0,0,2.81-2.11c.25-2.51-2-1.36-3.24-1.65a16.08,16.08,0,0,1-2.91-.51c-1-.45-2.11-1.28-1.77-2.64s1.58-.91,2.51-1,1.66,0,2.49,0c1.79-.14,4.47,1,4.48-2.21,0-2.54-.9-5.11-3.74-5.71s-5.79-.64-7.74,2a8.49,8.49,0,0,0-.86,9C292.09,349.9,294.17,352.06,298.75,352Zm36.85-13.15c1.12,1.95,2.6,1,3.79,1.2,1,.16,2.25.2,2.34,1.38s-1.22,1.27-2.16,1.53a13.41,13.41,0,0,0-3.26,1.14,4.58,4.58,0,0,0-2.29,5.09,4.06,4.06,0,0,0,3.18,3.42c5.65,1.59,8.55-.43,8.76-6.13,0-1.17.06-2.33.06-3.49a5.07,5.07,0,0,0-3.23-5.13A6.42,6.42,0,0,0,335.6,338.83Zm25.92,1.38c-4.54-2.83-7.57-2.12-10.37,0s-3.29,4.88-2.51,8.06c.91,3.72,4.08,5.07,7.14,6.26,1.56.61,3-.73,3.46-2.16s-1.06-1.35-2-1.36c-3.59,0-5.28-2.11-5.1-5.36.19-3.64,2.49-5.21,6.16-4.74C358.87,341,359.48,340.69,361.52,340.21ZM311,346.69c-1.33,1.89-2.74,1.63-4.23,1.48-.89-.08-2.25-.08-2.26,1.3s1.29,1.33,2.21,1.55c2.78.65,5.58.52,7-2.27s.56-5.11-2.45-6.57c-1.63-.79-3.05-1.95-.25-3.22,1-.46,3.28.69,2.76-1.58-.38-1.65-2.37-1.62-3.86-1.31-1.85.38-3.57,1.17-3.94,3.29-.33,1.87-.11,3.72,1.46,5A38.69,38.69,0,0,0,311,346.69Zm52-.1c.74,2.18-1.47,6.4,1.06,6.4,3.15,0,1.57-4.24,1.63-6.56,0-2,1.44-5.95-1.08-5.9C361.41,340.6,363.64,344.42,363,346.59Z"></path><path class="cls-14" d="M151.77,353.83c1.47-2.88,2-5.57-.86-8.1-2.62-2.33,1.3-4.45.45-6.8.82-.07,1.91.17,2.42-.26,6.51-5.54,14.59-5.6,22.4-6.42,6.91-.73,13.87-1,20.8-1.54-.11,3.89.47,7.76-5.88,7.3-3.1-.22-4.81,3.41-4.83,6.64,0,3.5,1.24,6.63,4.81,8,3.14,1.22,6.21-.55,9.07-1.29,1.81-.47.55-3.85.47-5.94-.2-4.81-.45-9.63-.68-14.45,4.49-.09,9-.32,13.26,1.51,1.73.73,3.47,1.27,3.81,3.46-6.42,2.5-7.55,4.22-6.8,10.07.52,4.08,3.92,5.24,6.81,7-1,2.88-3.74,3.32-6.09,3.62-7.71.95-15.32,2.72-23.22,2.42-6.27-.24-12.58-.41-18.88.68A13,13,0,0,1,159,357.1,19.24,19.24,0,0,0,151.77,353.83Zm15-.61c-1.12-1.58-2.18-1.11-3.1-1.07-2.29.11-5,0-4.9-2.78.09-2.42,2.93-1.12,4.53-1.52,1.79-.45,4.5.31,4.29-2.78-.18-2.65-1.53-4.83-4.47-5.21-3.35-.43-6.43.18-7.94,3.66-1.44,3.31-1.33,6.73,1.44,9.21C159.58,355.38,163.07,355.76,166.78,353.22Zm4.09-6.76c0-.33-.07,0,0,.33.55,2.25-1,6.45,1.71,6.36,3-.1,1.1-4.09,1.28-6.35s-.12-5.23,2.9-5.52c3.61-.35,3,3.07,3.8,5.3.72,2.06-1.26,6.21,2.26,5.82,2.62-.3,1-4.28,1-6.58.1-4.06-1.34-7.46-6.11-7.41C171.16,338.48,170.51,339.36,170.87,346.46Zm36.87-1.66c-1.37-2.49,1.44-7.74-2.58-7.52-3.7.2-2.29,5.37-1.64,8,.51,2.11-1.14,6.62,2.6,6.2C209.63,351.13,207.24,347.2,207.74,344.8Z"></path><path class="cls-11" d="M199.94,331c.23,4.82.48,9.64.68,14.45.08,2.09,1.34,5.47-.47,5.94-2.86.74-5.93,2.51-9.07,1.29-3.57-1.4-4.83-4.53-4.81-8,0-3.23,1.73-6.86,4.83-6.64,6.35.46,5.77-3.41,5.88-7.3Zm-2.88,14.22c-.11-2.55-.28-5-3.57-5-2.92,0-3.51,2.14-3.52,4.45,0,2.63.44,5.25,3.91,5.17C196.89,349.74,196.93,347.32,197.06,345.22Z"></path><path class="cls-14" d="M233,351.37c-4.08,3.45-8.6,2.27-13.1,1.26,1.15-1.72,4.11-3.92-1.15-3.79-3.26.08-4.85-2-4.86-5s1.81-4.77,5-4.84c1.73,0,3.75.07,2-2.64,1.81-4.27,4.09-.76,6.19-.37-3.07,3.21-4.67,6.8-2.88,11.24C225.87,351.35,229.64,351,233,351.37Z"></path><path class="cls-11" d="M379,355c-8.81.06-12.38-4.86-8.69-11.76,2-3.75,5.47-3.14,8.71-3.39C386,343.9,386,350.28,379,355Zm-6.69-7.32c.2,2.66,1.2,4.94,4,4.9,3.37,0,4.26-3,4.21-5.66,0-2.38-1.27-4.79-4.16-4.54S372.47,345.07,372.26,347.63Z"></path><path class="cls-11" d="M233,351.37c-3.39-.41-7.16,0-8.81-4.12-1.79-4.44-.19-8,2.88-11.24,3.06,0,6.28-.71,8.68,2.05,1.06,3.06,2.6,6.21-3,6.34-1.6,0-4.77-1.31-4.64,1.69.12,2.61,3,2.4,5.21,2.21.82-.08,1.63-.18,2.45-.28C236.32,350.33,234.78,350.94,233,351.37Zm-2.78-9.52c1-.44,3,.66,3-1.49,0-1.29-1.37-1.86-2.57-1.89-1.46,0-2.77.7-2.8,2.23C227.82,342.07,229.24,341.74,230.25,341.85Z"></path><path class="cls-11" d="M263.67,350.83c-3.51.61-6.05-.65-7.59-3.88,0-3.67-.09-7.33-.13-11,2.56-.7,3.4.78,3.71,2.94-.09,1.79-.3,3.58-.24,5.36s.62,3.37,2.73,3.43,3.3-1.4,3.43-3.4-.08-4.23-.14-6.35c.4-1.08.74-2.46,2.28-1.88,1.83.7.87,2.6,1.35,3.91-.08,3.31-.15,6.62-.23,9.94l-2.92.34A1.92,1.92,0,0,0,263.67,350.83Z"></path><path class="cls-11" d="M280.2,335.53c1.06,1.8.83,2.84-1.55,2.62-1-.09-2.12-.27-2.51.94-.5,1.55,1,1.85,1.85,2.49,5,3.66,5,6,.17,9.76-2.46,1.19-4.52.46-6.34-1.35.16-2,1.43-2.24,3.09-2.07,1.27.12,2.91.35,3.15-1.39.22-1.55-1.29-2.09-2.48-2.59a8.49,8.49,0,0,1-4.69-4C272.43,335.21,276.12,335,280.2,335.53Z"></path><path class="cls-11" d="M220.91,336.38c1.75,2.71-.27,2.61-2,2.64-3.18.07-5,1.72-5,4.84s1.6,5.06,4.86,5c5.26-.13,2.3,2.07,1.15,3.79L217,353c-2.89-1.73-6.29-2.89-6.81-7-.75-5.85.38-7.57,6.8-10.07Z"></path><path class="cls-11" d="M253.73,348.7c-2.12,4.08-4.46,2.2-6.8.25-1-3.78,1.82-8.48-2.76-11.39a20.15,20.15,0,0,0,1.66-2.4c1.21-2.38,2.16-5.39,4.39-.59.61,1.32,2.38.93,3.54,1.5-.28.58-.41,1.36-.87,1.71C248.37,341.26,248.72,346.09,253.73,348.7Z"></path><path class="cls-14" d="M235.83,348c-.82.1-1.63.2-2.45.28-2.17.19-5.09.4-5.21-2.21-.13-3,3-1.65,4.64-1.69,5.57-.13,4-3.28,3-6.34,3.6,0,4.06,2.49,4.19,5.26C240.11,346.24,238.91,348,235.83,348Z"></path><path class="cls-14" d="M253.73,348.7c-5-2.61-5.36-7.44-.84-10.92.46-.35.59-1.13.87-1.71L256,336c0,3.67.09,7.33.13,11A2.92,2.92,0,0,0,253.73,348.7Z"></path><path class="cls-14" d="M265.44,337.93c.06,2.12.27,4.24.14,6.35s-1.23,3.46-3.43,3.4-2.67-1.71-2.73-3.43.15-3.57.24-5.36A11.47,11.47,0,0,0,265.44,337.93Z"></path><path class="cls-14" d="M270.89,340a8.49,8.49,0,0,0,4.69,4c1.19.5,2.7,1,2.48,2.59-.24,1.74-1.88,1.51-3.15,1.39-1.66-.17-2.93.07-3.09,2.07l-3-.09c.08-3.32.15-6.63.23-9.94Z"></path><path class="cls-14" d="M244.17,337.56c4.58,2.91,1.74,7.61,2.76,11.39C241.33,346.28,243.84,341.66,244.17,337.56Z"></path><path class="cls-14" d="M263.67,350.83a1.92,1.92,0,0,1,2.25-.59Z"></path><path class="cls-14" d="M148.48,355.88,150,355Z"></path><path class="cls-14" d="M145.47,346.75c2.21.19,3.9,1.1,3.6,3.63s-2.25,3.21-4.33,3.14c-2.62-.09-2.28-2.3-2.38-4.06C142.22,347.24,143.45,346.54,145.47,346.75Z"></path><path class="cls-14" d="M141.44,340.77c-.19-1.88.73-2.71,2.57-2.72s3.35.67,3.42,2.68-1.24,3-3.1,3.16C142.07,344.11,141.61,342.55,141.44,340.77Z"></path><path class="cls-8" d="M415.13,234.13c1.19-2.35,3.62-3.14,5.62-4.46,7.1,3.33,9,8.87,5.31,15.91-1.62,3.07-3.38,6.17-6.75,7.79l-.56-.6c1.6-2.12,1.38-4.13.05-6.38-2.16-3.68-4.07-7.51-6.08-11.27l2.4-1c.67,4.25,3.45,7.47,5.44,11.07.85,1.53,2.09,1.76,3,.15,1.35-2.31,2.38-4.85,1.56-7.55s-3.21-3.17-5.55-3.51A41.27,41.27,0,0,0,415.13,234.13Z"></path><path class="cls-8" d="M420.86,183.84l-3.19,0c.58-2.81,2.23-5.85-1.6-7.76-1.62-.81-10.94.59-11.88,1.8a2.13,2.13,0,0,0-.06,2.31c1.1,2.74,2.18,5.48,3.27,8.22l-2.25,1.8c-1.43-2.93-1.63-6.27-3.69-9.08-1.59-2.18-.33-4.68,2-5.76A19.83,19.83,0,0,1,416,173.5C421.94,174.76,420.89,179.6,420.86,183.84Z"></path><path class="cls-9" d="M338.43,280.06l2.28-.05c2.22,3.83,5.24,4.66,9.22,2.7,2.37-1.17,4.86-2.1,7.33-3,5.77-2.19,8.72-6.27,8.51-12.51l1.17-1.16c0,5.38,1.49,11.31-5.1,14.35l-.9.63c-4.86,1.45-9.06,4.58-14.14,5.44l-1.66,0A13.38,13.38,0,0,1,339.9,284l-.86-1.18C338.84,281.91,338.64,281,338.43,280.06Z"></path><path class="cls-8" d="M395.92,265.12a5.34,5.34,0,0,0,.22,1l.72,2.1L397,271l-.24,1-1.52,0c-.13-1-.22-2-.39-2.93-.64-3.7-3-5.35-6.61-5.24s-7.37.62-8.05,4.89c-.64,4-2.24,7.54-3.5,11.25l-1.83-1.09,1.11-3.79.8-1.09c.1-.6.19-1.19.28-1.8,1-1.62.7-3.43.75-5.19,1.77-3.22,4.66-4.68,8.17-5.13l4.88-.11L394,263l1,.95.05.05Z"></path><path class="cls-9" d="M395.25,272l1.52,0c0,2,.07,4,.11,6-3,4.78-8.17,6.28-12.91,8.44l-4.05,0c-2.21-1-4.45-2-5.34-4.61l0-2.76.32-.15L376.7,280c1.92,4.15,5.29,4.61,9.07,3.29C391.08,281.45,394.72,278,395.25,272Z"></path><path class="cls-9" d="M396.57,239.11l2.48.08c2.58,3.93,7.3,6.09,8.9,10.83l-1.9.14-2.2-1.13c-.66-.7-.78-3.25-2.36-1-1.15,1.65-2.16,3.72-.42,5.77l-1.23,1.3a8.35,8.35,0,0,1-1.66-8.29C399.13,243.74,398.23,241.44,396.57,239.11Z"></path><path class="cls-9" d="M416.85,255.68c-4,2.49-8.14,4.23-12.93,2.34l0-1.92,1.2-2,1.74-.05c.27,1.43.47,3,2.5,2.76,1.5-.16,2.33-.93,1.88-2.58l3.82-1.35a2.58,2.58,0,0,1,.84.35Z"></path><path class="cls-8" d="M401.87,216.87c.63-1.25,1.86-1.43,3-1.71l6.24,13.77-2.13,1C407.43,225.13,404.7,221,401.87,216.87Z"></path><path class="cls-8" d="M428.91,268l-1,4,0,0-2,1,0,0-1,1,0,0-1,1,0,0-1,1,0,0a6.93,6.93,0,0,0-3,3l0,0-2.74.37c-.22-.26-.45-.52-.67-.79C420.77,275.16,423.79,270.34,428.91,268Z"></path><path class="cls-8" d="M434.92,260c-.48,3.81-2.92,6.15-6,8C429.38,264.16,431.94,261.91,434.92,260Z"></path><path class="cls-8" d="M404,256.1l0,1.92a6.5,6.5,0,0,1-4.08-2.91l1.23-1.3Z"></path><path class="cls-10" d="M396.88,278c0-2-.07-4-.11-6l.24-1A6.29,6.29,0,0,1,396.88,278Z"></path><path class="cls-8" d="M416.85,255.68c-.31-.83-.62-1.66-.92-2.49.94-.15,1.88-.28,2.82-.42l.56.6C418.79,254.47,418.18,255.46,416.85,255.68Z"></path><path class="cls-10" d="M390.86,261.81l-4.88.11A4.08,4.08,0,0,1,390.86,261.81Z"></path><path class="cls-10" d="M377.81,267.05c-.05,1.76.25,3.57-.75,5.19C377,270.47,376.71,268.66,377.81,267.05Z"></path><path class="cls-10" d="M374.55,279.07l0,2.76A2.42,2.42,0,0,1,374.55,279.07Z"></path><path class="cls-10" d="M345.14,286.44l1.66,0Z"></path><path class="cls-10" d="M399.27,287.12,397,288.29A2.71,2.71,0,0,1,399.27,287.12Z"></path><path class="cls-10" d="M396.86,268.18l-.72-2.1Z"></path><path class="cls-10" d="M395.92,265.12,395,264Z"></path><path class="cls-10" d="M394.94,264l-1-.95Z"></path><path class="cls-10" d="M376.78,274l-.8,1.09Z"></path><path class="cls-10" d="M360.94,281l.9-.63Z"></path><path class="cls-10" d="M339,282.83l.86,1.18H339C339,283.61,339,283.22,339,282.83Z"></path><path class="cls-10" d="M337.06,278.68l.79,1.3Z"></path><path class="cls-9" d="M357.09,207.62c1.61-2.64,5.52-1,7-3.78l2.22,2.91L363,207.82Z"></path><path class="cls-10" d="M417.21,279.35,420,279c-.89,1.08-1.48,2.66-3.39,2.13C416.77,280.53,417,279.94,417.21,279.35Z"></path><path class="cls-10" d="M419.91,279a6.93,6.93,0,0,1,3-3c0,.68,0,1.36,0,2l0,0-1,1,0,0Z"></path><path class="cls-10" d="M409.94,285a4.06,4.06,0,0,1,3-1v0a3.83,3.83,0,0,1-3,1Z"></path><path class="cls-10" d="M412.94,284l.64-.6c.32.8-.45.37-.65.58Z"></path><path class="cls-8" d="M421.92,279l1-1Z"></path><path class="cls-8" d="M428.91,272l1-1Z"></path><path class="cls-10" d="M425.91,273l2-1Z"></path><path class="cls-10" d="M423.91,275l1-1Z"></path><path class="cls-10" d="M422.91,276l1-1Z"></path><path class="cls-10" d="M424.91,274l1-1Z"></path><path class="cls-7" d="M403,211a31.94,31.94,0,0,1,6.6-18.15c2.07-2.73,5.54-4.3,8.8-2.29,3.55,2.2,2.82,5.85.89,8.79C415.58,205.09,410.19,208.76,403,211Z"></path><path class="cls-15" d="M407.4,188.43c-1.09-2.74-2.17-5.48-3.27-8.22a2.13,2.13,0,0,1,.06-2.31c.94-1.21,10.26-2.61,11.88-1.8,3.83,1.91,2.18,5,1.6,7.76A31.72,31.72,0,0,0,407.4,188.43Z"></path><path class="cls-10" d="M418.75,252.77c-.94.14-1.88.27-2.82.42a2.58,2.58,0,0,0-.84-.35c-1.51-5.58-6.1-9.62-7.63-15.19,1.88-.59,3-2.81,5.26-2.53,2,3.76,3.92,7.59,6.08,11.27C420.13,248.64,420.35,250.65,418.75,252.77Z"></path><path class="cls-7" d="M401.87,216.87c2.83,4.1,5.56,8.26,7.15,13-4.91,1.16-7.54-.33-7.88-4.89C400.94,222.32,400.44,219.47,401.87,216.87Z"></path><path class="cls-10" d="M408,250c-1.6-4.74-6.32-6.9-8.9-10.83l5.72-.56c2.18,4.05,5.8,7.38,6.22,12.31l-.07.09-1.87-1.15-1.13.11Z"></path><path class="cls-8" d="M409.05,249.88l1.87,1.15.88,1,.36-.5-1.17-.55c-.42-4.93-4-8.26-6.22-12.31l2.7-1c1.52,5.57,6.11,9.61,7.62,15.19l-3.82,1.35a7.47,7.47,0,0,1-3.34-3.17Z"></path><path class="cls-9" d="M356,153.07c-1-.72-1.16-1.87-1.46-2.94L356,150C356,151.05,356,152.06,356,153.07Z"></path><path class="cls-11" d="M317.79,347.14a22.16,22.16,0,0,1,.19-3.47c.46-2.24-1.42-6,1.7-6.4,3.43-.45,7.63-2.22,10.74,1.44,2.44,2.89,2.38,6.11.95,9.32-1.15,2.61-3.28,4.39-6.25,4-2.78-.38-4.5-.12-4.43,3.22a1.55,1.55,0,0,1-1.95,1.67c-1.22-.25-1.42-1.32-1.38-2.33.11-2.48.33-4.95.5-7.43Zm3.42-2.39c0,2.07.65,4.26,3.76,4.22s3.81-2.27,3.91-4.75-.86-4.71-3.84-4.69S321.23,341.67,321.21,344.75Z"></path><path class="cls-11" d="M298.75,352c-4.58.08-6.66-2.08-8-4.83a8.49,8.49,0,0,1,.86-9c1.95-2.67,5-2.6,7.74-2s3.74,3.17,3.74,5.71c0,3.24-2.69,2.07-4.48,2.21-.83.06-1.67-.05-2.49,0s-2.2-.27-2.51,1,.73,2.19,1.77,2.64a16.08,16.08,0,0,0,2.91.51c1.23.29,3.49-.86,3.24,1.65A2.42,2.42,0,0,1,298.75,352Zm-2.3-10.22c1.11-.35,3,.62,3.05-1.48,0-1.29-1.19-2-2.44-2a2.71,2.71,0,0,0-3,2C293.68,342.32,295.51,341.43,296.45,341.76Z"></path><path class="cls-11" d="M335.6,338.83a6.42,6.42,0,0,1,7.19-1A5.07,5.07,0,0,1,346,343c0,1.16,0,2.32-.06,3.49-.21,5.7-3.11,7.72-8.76,6.13a4.06,4.06,0,0,1-3.18-3.42,4.58,4.58,0,0,1,2.29-5.09,13.41,13.41,0,0,1,3.26-1.14c.94-.26,2.26-.25,2.16-1.53s-1.34-1.22-2.34-1.38C338.2,339.83,336.72,340.78,335.6,338.83Zm6.68,8.15a1.51,1.51,0,0,0-1.94-1.43c-1.48.23-2.95.71-3,2.6,0,1.18.88,1.71,2,1.69C341.06,349.81,341.94,348.76,342.28,347Z"></path><path class="cls-11" d="M361.52,340.21c-2,.48-2.65.8-3.21.72-3.67-.47-6,1.1-6.16,4.74-.18,3.25,1.51,5.34,5.1,5.36.93,0,2.43-.06,2,1.36s-1.9,2.77-3.46,2.16c-3.06-1.19-6.23-2.54-7.14-6.26-.78-3.18-.15-6,2.51-8.06S357,337.38,361.52,340.21Z"></path><path class="cls-11" d="M311,346.69a38.69,38.69,0,0,1-3.58-2.32c-1.57-1.29-1.79-3.14-1.46-5,.37-2.12,2.09-2.91,3.94-3.29,1.49-.31,3.48-.34,3.86,1.31.52,2.27-1.75,1.12-2.76,1.58-2.8,1.27-1.38,2.43.25,3.22,3,1.46,3.8,3.86,2.45,6.57s-4.2,2.92-7,2.27c-.92-.22-2.22-.28-2.21-1.55s1.37-1.38,2.26-1.3C308.25,348.32,309.66,348.58,311,346.69Z"></path><path class="cls-16" d="M363,346.59c.62-2.17-1.61-6,1.61-6.06,2.52,0,1.12,3.86,1.08,5.9-.06,2.32,1.52,6.55-1.63,6.56C361.55,353,363.76,348.77,363,346.59Z"></path><path class="cls-11" d="M166.78,353.22c-3.71,2.54-7.2,2.16-10.15-.49-2.77-2.48-2.88-5.9-1.44-9.21,1.51-3.48,4.59-4.09,7.94-3.66,2.94.38,4.29,2.56,4.47,5.21.21,3.09-2.5,2.33-4.29,2.78-1.6.4-4.44-.9-4.53,1.52-.11,2.76,2.61,2.89,4.9,2.78C164.6,352.11,165.66,351.64,166.78,353.22Zm-6.13-7.49c1.29-.26,3.24.34,3.4-1.71.1-1.21-1.19-1.86-2.44-2a2.68,2.68,0,0,0-3.12,2.48C158.28,346.08,159.71,345.62,160.65,345.73Z"></path><path class="cls-11" d="M170.87,346.46c-.36-7.1.29-8,6.9-8,4.77-.05,6.21,3.35,6.11,7.41,0,2.3,1.57,6.28-1,6.58-3.52.39-1.54-3.76-2.26-5.82-.77-2.23-.19-5.65-3.8-5.3-3,.29-2.7,3.16-2.9,5.52s1.68,6.25-1.28,6.35c-2.75.09-1.16-4.11-1.71-6.36C170.8,346.48,170.87,346.13,170.87,346.46Z"></path><path class="cls-11" d="M207.74,344.8c-.5,2.4,1.89,6.33-1.62,6.72-3.74.42-2.09-4.09-2.6-6.2-.65-2.67-2.06-7.84,1.64-8C209.18,337.06,206.37,342.31,207.74,344.8Z"></path><path class="cls-14" d="M197.06,345.22c-.13,2.1-.17,4.52-3.18,4.6-3.47.08-3.91-2.54-3.91-5.17,0-2.31.6-4.46,3.52-4.45C196.78,340.21,197,342.67,197.06,345.22Z"></path><path class="cls-14" d="M372.26,347.63c.21-2.56,1-5.05,4-5.3s4.12,2.16,4.16,4.54c.05,2.7-.84,5.61-4.21,5.66C373.46,352.57,372.46,350.29,372.26,347.63Z"></path><path class="cls-14" d="M230.25,341.85c-1-.11-2.43.22-2.41-1.15,0-1.53,1.34-2.27,2.8-2.23,1.2,0,2.56.6,2.57,1.89C233.22,342.51,231.24,341.41,230.25,341.85Z"></path><path class="cls-10" d="M415.13,234.13a41.27,41.27,0,0,1,4.46.17c2.34.34,4.76.91,5.55,3.51s-.21,5.24-1.56,7.55c-.93,1.61-2.17,1.38-3-.15-2-3.6-4.77-6.82-5.44-11.07Z"></path><path class="cls-15" d="M395.25,272c-.53,6-4.17,9.41-9.48,11.26-3.78,1.32-7.15.86-9.07-3.29,1.26-3.71,2.86-7.27,3.5-11.25.68-4.27,4.5-4.78,8.05-4.89s6,1.54,6.61,5.24C395,270.08,395.12,271.06,395.25,272Z"></path><path class="cls-10" d="M404,256.1l-2.88-2.29c-1.74-2.05-.73-4.12.42-5.77,1.58-2.26,1.7.29,2.36,1q.64,2.5,1.31,5C404.75,254.74,404.35,255.42,404,256.1Z"></path><path class="cls-10" d="M407.93,251a7.47,7.47,0,0,0,3.34,3.17c.45,1.65-.38,2.42-1.88,2.58-2,.22-2.23-1.33-2.5-2.76l-.84-3.85L408,250l0,0Z"></path><path class="cls-8" d="M406.05,250.16l.84,3.85-1.74.05c-.43-1.68-.87-3.36-1.3-5Z"></path><path class="cls-9" d="M407.93,251v-1l1.13-.11Z"></path><path class="cls-10" d="M411,250.94l1.17.55-.36.5-.88-1Z"></path><path class="cls-14" d="M321.21,344.75c0-3.08.86-5.2,3.83-5.22s3.94,2.09,3.84,4.69S328,348.93,325,349,321.24,346.82,321.21,344.75Z"></path><path class="cls-14" d="M296.45,341.76c-.94-.33-2.77.56-2.42-1.45a2.71,2.71,0,0,1,3-2c1.25.05,2.47.72,2.44,2C299.45,342.38,297.56,341.41,296.45,341.76Z"></path><path class="cls-14" d="M342.28,347c-.34,1.78-1.22,2.83-2.94,2.86-1.08,0-2-.51-2-1.69,0-1.89,1.48-2.37,3-2.6A1.51,1.51,0,0,1,342.28,347Z"></path><path class="cls-14" d="M160.65,345.73c-.94-.11-2.37.35-2.16-1.2a2.68,2.68,0,0,1,3.12-2.48c1.25.11,2.54.76,2.44,2C163.89,346.07,161.94,345.47,160.65,345.73Z"></path><path class="cls-5" d="M356,196.77c4.06-1.48,5.78-5.65,9.34-7.44.86-.44,1.47-1.36,2.31-1.87,4.22-2.6,8.81-4.84,13.63-2.52s4.32,7.46,4.3,11.92c-.08,16-6.49,28.95-19.23,38.63a17.1,17.1,0,0,1-17,2.61c-2.24-.82-3.26-.42-3.84,2-1.4,5.81-2.87,11.61-4.54,17.35-1.41,4.81.85,6.84,5.16,7.63a7.21,7.21,0,0,1,2.44.43c1.46.91,4.84-1,4.39,2.39-.35,2.66-3,1.44-4.59,1.34a197.27,197.27,0,0,0-23.45,0c-1.17.07-3,.94-3.33-1-.31-1.57.95-2.25,2.48-2.45,4.71-.6,6.89-4.12,7.85-8.06,5-20.18,9.65-40.42,14.37-60.66.35-1.52,1.45-3.56-.27-4.62-1.89-1.16-3.37.67-4.75,1.8-1.68,1.36-3.28,2.82-4.88,4.27-.87.8-1.68,1-2.57.06a1.71,1.71,0,0,1-.12-2.61c4.88-5.89,10.44-10.81,18.36-11.85,4.32-.56,5.75,1.24,5,5.62C356.73,192,355.54,194.08,356,196.77Zm20.73,5.39c.07-7.88-4-11.45-8.89-8.71-7.21,4.1-13.18,9.54-15.4,18-1.13,4.34-2.26,8.67-3.32,13-1.37,5.65.58,8.58,6.37,9.66a10.08,10.08,0,0,0,10.27-3.58C372.93,221.94,375.73,211.66,376.71,202.16Z"></path><rect class="cls-3" x="137" y="328" width="260" height="37"></rect><path class="cls-17" d="M137,338.05a26.69,26.69,0,0,1,4.92-.91c2.7-.24,4.43.06,5.72,1a4,4,0,0,1,1.75,3.52,5.47,5.47,0,0,1-3.53,4.84v.08a4.78,4.78,0,0,1,4.31,4.82,5.91,5.91,0,0,1-1.79,4.28c-1.43,1.46-3.78,2.27-7.2,2.58a39.63,39.63,0,0,1-4.18.16Zm2.69,8.22,2.47-.22c2.82-.26,4.49-1.89,4.49-3.9,0-2.4-1.84-3.21-4.56-3a11.23,11.23,0,0,0-2.4.41Zm0,9.9a12.35,12.35,0,0,0,2.27-.07c2.79-.25,5.37-1.49,5.37-4.5,0-2.82-2.46-3.79-5.4-3.52l-2.24.2Z"></path><path class="cls-17" d="M155.33,349.91c0,3.65,2.39,5,5.12,4.76a10.72,10.72,0,0,0,4.15-1.08l.48,1.89a12.94,12.94,0,0,1-5,1.32c-4.6.36-7.37-2.45-7.37-6.91s2.67-8.25,7-8.59c4.88-.39,6.16,3.78,6.16,6.52a6.81,6.81,0,0,1-.09,1.28C162.33,349.35,158.83,349.63,155.33,349.91Zm8-2.57c0-1.71-.7-4.33-3.76-4.09-2.78.22-4,2.81-4.18,4.71Z"></path><path class="cls-17" d="M169.32,344.93c0-1.55,0-2.78-.13-4l2.41-.17.15,2.44h.08a6,6,0,0,1,4.95-3.12c2.06-.14,5.28.89,5.28,6V355l-2.71.16v-8.58c0-2.41-.91-4.37-3.46-4.2a4.29,4.29,0,0,0-3.68,3,4.42,4.42,0,0,0-.18,1.27v9l-2.71.19Z"></path><path class="cls-17" d="M199.45,332.1v18c0,1.32.06,2.81.13,3.84l-2.43.12c0-.86-.09-1.71-.13-2.57h-.08a5.88,5.88,0,0,1-5.08,3.19c-3.64.19-6.44-2.69-6.44-7.21,0-5,3.09-8.19,6.74-8.4a4.74,4.74,0,0,1,4.52,2h.06v-8.9Zm-2.71,13.19a5.63,5.63,0,0,0-.11-1.16,3.78,3.78,0,0,0-3.95-2.91c-2.82.16-4.51,2.72-4.51,6,0,3,1.51,5.45,4.45,5.3a4.58,4.58,0,0,0,4.12-4.64Z"></path><path class="cls-17" d="M207.05,334.5a1.74,1.74,0,0,1-1.74,1.77,1.54,1.54,0,0,1-1.65-1.61,1.74,1.74,0,0,1,1.7-1.77A1.54,1.54,0,0,1,207.05,334.5ZM204,353.78V338.86l2.71-.13v14.93Z"></path><path class="cls-17" d="M222,352.53a10.62,10.62,0,0,1-4.3,1c-4.53.16-7.49-2.78-7.49-7.34a8,8,0,0,1,8.06-8.28,8.64,8.64,0,0,1,3.79.66l-.6,2.11a6.55,6.55,0,0,0-3.19-.61c-3.43.13-5.3,2.76-5.3,5.86,0,3.46,2.24,5.5,5.23,5.39a8.08,8.08,0,0,0,3.34-.83C221.64,351.18,221.8,351.86,222,352.53Z"></path><path class="cls-17" d="M226.49,346c.06,3.67,2.4,5.12,5.14,5.05a10.27,10.27,0,0,0,4.15-.87l.48,1.92a12.46,12.46,0,0,1-5,1.07c-4.62.12-7.39-2.84-7.39-7.32s2.68-8.16,7.06-8.28c4.9-.14,6.18,4.12,6.18,6.88a6.62,6.62,0,0,1-.09,1.27Q231.76,345.79,226.49,346Zm8-2.17c0-1.72-.7-4.39-3.76-4.31-2.79.08-4,2.63-4.19,4.52Z"></path><path class="cls-17" d="M250.36,333.14v4.31l3.93,0v2.06l-3.93,0v8.07c0,1.86.54,2.91,2.07,2.89a5.35,5.35,0,0,0,1.58-.21l.12,2.07a7,7,0,0,1-2.43.4,3.81,3.81,0,0,1-2.95-1.12,5.66,5.66,0,0,1-1.06-3.89v-8.17l-2.33,0v-2.07l2.33,0v-3.6Z"></path><path class="cls-17" d="M269.91,348.22c0,1.57,0,2.91.13,4.1h-2.42c0-.82-.09-1.64-.14-2.45h-.08a5.64,5.64,0,0,1-5,2.8c-2.35,0-5.17-1.28-5.17-6.54v-8.75l2.72,0v8.28c0,2.85.89,4.79,3.35,4.78a4,4,0,0,0,3.62-2.51,4.26,4.26,0,0,0,.25-1.4v-9.18h2.71Z"></path><path class="cls-17" d="M274.07,349.55a7.48,7.48,0,0,0,3.62,1.09c2,0,2.92-.95,2.92-2.21s-.8-2-2.79-2.77c-2.71-1-4-2.47-4-4.27,0-2.42,2-4.4,5.19-4.38a7.27,7.27,0,0,1,3.68,1l-.68,2a5.91,5.91,0,0,0-3.08-.91c-1.61,0-2.49.91-2.49,2s.89,1.8,2.85,2.58c2.59,1,3.94,2.3,3.94,4.54,0,2.67-2.06,4.5-5.61,4.48a8.67,8.67,0,0,1-4.22-1.07Z"></path><path class="cls-17" d="M294.85,345.56c.06,3.69,2.4,5.26,5.14,5.32a9.85,9.85,0,0,0,4.16-.67c.16.65.32,1.31.47,2a11.93,11.93,0,0,1-5,.83c-4.61-.1-7.39-3.22-7.39-7.73s2.68-8.06,7.07-8c4.89.1,6.17,4.45,6.17,7.21a6.67,6.67,0,0,1-.09,1.28Q300.12,345.66,294.85,345.56Zm8-1.8c0-1.72-.7-4.44-3.76-4.51-2.79-.06-4,2.45-4.19,4.34Z"></path><path class="cls-17" d="M308.48,350.12a7.64,7.64,0,0,0,3.62,1.18c2,.06,2.92-.89,2.92-2.15s-.8-2-2.79-2.84c-2.71-1.07-4-2.58-4-4.38,0-2.43,2-4.36,5.19-4.26a7.41,7.41,0,0,1,3.68,1.05c-.23.65-.45,1.31-.68,2a6,6,0,0,0-3.08-1c-1.61-.05-2.48.85-2.48,2s.88,1.83,2.85,2.66c2.58,1.05,3.92,2.41,3.93,4.65,0,2.67-2.06,4.46-5.61,4.35a8.71,8.71,0,0,1-4.22-1.18Z"></path><path class="cls-17" d="M321.15,343.18c0-1.92,0-3.49-.12-4.91l2.43.09.15,2.57h.07a5.57,5.57,0,0,1,5.32-2.7c3.63.16,6.37,3.36,6.37,7.94,0,5.43-3.31,7.94-6.82,7.79a5.52,5.52,0,0,1-4.63-2.56h-.06v8.2l-2.71-.11Zm2.71,4.13a5.19,5.19,0,0,0,.12,1.12,4.43,4.43,0,0,0,4.08,3.38c2.89.12,4.56-2.18,4.56-5.64,0-3-1.57-5.66-4.45-5.79A4.13,4.13,0,0,0,324,343.6a4.6,4.6,0,0,0-.18,1.1Z"></path><path class="cls-17" d="M347.11,354.56l-.24-1.92h-.08a5.26,5.26,0,0,1-4.58,2,4.56,4.56,0,0,1-4.58-4.56c0-3.65,3.22-5.5,9-5.14v-.32a3.3,3.3,0,0,0-3.42-3.67,7,7,0,0,0-3.9.92c-.21-.61-.42-1.23-.62-1.85a9.06,9.06,0,0,1,4.95-1.07c4.58.25,5.7,3.47,5.7,6.49v5.65a25.23,25.23,0,0,0,.22,3.62Zm-.42-7.73c-2.95-.23-6.33.13-6.33,3.05a2.57,2.57,0,0,0,2.55,2.76,3.52,3.52,0,0,0,3.65-2.33,2.61,2.61,0,0,0,.13-.86Z"></path><path class="cls-17" d="M364.43,355.1a10,10,0,0,1-4.3.58c-4.52-.3-7.48-3.57-7.48-8.18s3.15-7.86,8.05-7.55a9.22,9.22,0,0,1,3.79,1.06c-.2.69-.4,1.38-.61,2.07a6.89,6.89,0,0,0-3.18-.94c-3.42-.22-5.3,2.25-5.29,5.38,0,3.5,2.23,5.79,5.22,6A7.53,7.53,0,0,0,364,353C364.12,353.7,364.28,354.4,364.43,355.1Z"></path><path class="cls-17" d="M370.67,336.71a1.52,1.52,0,0,1-1.74,1.58,1.78,1.78,0,0,1-1.64-1.82,1.53,1.53,0,0,1,1.69-1.59A1.79,1.79,0,0,1,370.67,336.71Zm-3.05,19.16V340.76l2.71.19v15.11Z"></path><path class="cls-17" d="M388.42,349.8c0,5.6-3.84,7.72-7.44,7.43-4.06-.33-7.2-3.55-7.2-8.35,0-5.06,3.29-7.77,7.44-7.44S388.42,345.19,388.42,349.8ZM376.55,349c0,3.31,1.89,5.95,4.54,6.17s4.56-2.09,4.56-5.52c0-2.56-1.27-5.91-4.51-6.17S376.55,346.14,376.55,349Z"></path><path class="cls-17" d="M391.48,355a8,8,0,0,0,3.61,1.4c2,.19,2.9-.72,2.9-2s-.79-2.09-2.78-3c-2.7-1.23-4-2.83-4-4.65,0-2.43,2-4.27,5.17-4a7.53,7.53,0,0,1,3.67,1.27c-.23.64-.45,1.29-.68,1.94a6.31,6.31,0,0,0-3.07-1.18c-1.6-.15-2.48.71-2.48,1.85s.88,1.89,2.85,2.84c2.58,1.21,3.91,2.66,3.92,4.92,0,2.69-2.06,4.36-5.59,4a9.14,9.14,0,0,1-4.21-1.43Z"></path></g></svg>